<?xml version="1.0" standalone="no"?>
<!DOCTYPE svg PUBLIC "-//W3C//DTD SVG 1.1//EN" "http://www.w3.org/Graphics/SVG/1.1/DTD/svg11.dtd" >
<!--
2013-9-30: Created.
-->
<svg>
<metadata>
Created by iconfont
</metadata>
<defs>

<font id="iconfont" horiz-adv-x="1024" >
  <font-face
    font-family="iconfont"
    font-weight="500"
    font-stretch="normal"
    units-per-em="1024"
    ascent="896"
    descent="-128"
  />
    <missing-glyph />
    
    <glyph glyph-name="lumi" unicode="&#58880;" d="M955.904 438.528c0 0-41.792 203.072-19.392 251.2 0 0 38.4 89.216-44.096 164.544 0 0-78.784 84.288-326.528-49.728 0 0-143.296-77.696-273.472-206.912 6.08 6.016 12.16 12.032 18.304 17.792 11.968-5.504 52.48-2.112 52.48-2.112 7.232 1.152 10.88-2.368 10.88-2.368 96.96-69.696 110.336-131.2 110.336-131.2 15.104-41.408-7.552-60.864-7.552-60.864C447.936 398.976 401.28 425.088 401.28 425.088c-64 27.648-111.68 113.408-111.68 113.408C280.512 554.88 275.52 567.6800000000001 272.896 577.7280000000001c-71.68-74.88-136.896-165.44-168.448-267.072 0 0-98.688-246.912 15.104-353.408 0 0 103.488-111.872 286.848-51.968 0 0 164.672 27.584 362.496 239.36-10.112 10.688-19.968 22.528-29.568 34.688-58.88 76.16-92.928 107.584-131.84 152.704l0-245.504L491.904 86.52800000000002 491.904 331.904C453.12 286.72 419.008 255.42399999999998 360.128 179.264 320.384 128 270.784 86.01599999999996 249.792 86.01599999999996L166.912 86.01599999999996c90.24 116.736 114.56 128.256 204.8 244.992C380.352 342.144 389.504 352.70399999999995 398.72 362.688L263.872 362.688 125.376 362.688l23.552 48.704 163.52 0 120.576 0 58.816 0L491.84 420.416 491.84 632.3199999999999l115.648 0 0-187.584c20.608 27.072 37.312 49.088 74.112 96.832 27.008 35.136 64.448 63.872 83.2 63.872l73.792 0c-61.504-79.936-66.88-87.744-128.384-167.744-7.232-9.344-15.232-18.304-23.36-26.304l131.2 0 120.896 0c0-26.752-21.824-48.704-48.576-48.704l-189.632 0c9.216-9.984 18.368-20.544 27.008-31.744 43.776-56.512 71.936-88.32 99.648-119.296 41.024 50.176 82.752 108.544 124.16 176.32C951.488 388.032 965.376 404.032 955.904 438.528z"  horiz-adv-x="1024" />

    
    <glyph glyph-name="luleyuan6259cf" unicode="&#58881;" d="M667.776 174.39999999999998c63.552 58.112 92.224 125.12 93.248 217.6 1.536 141.504-107.328 248.64-248.704 248.64-141.248 0-248.576-107.072-248.64-248.64 0.064-86.272 25.984-155.776 93.312-217.6l31.04 62.208c-36.736 32.448-62.08 102.4-62.144 155.392 0.128 97.984 88.768 186.304 186.496 186.496 97.792-0.192 186.368-88.512 186.56-186.496-0.128-56.256-21.376-122.944-62.208-155.392L667.776 174.39999999999998zM481.28 360.89599999999996l-155.392-466.304 370.88 0L543.424 360.89599999999996 481.28 360.89599999999996zM938.752 483.904c-11.2 59.392-33.472 114.88-66.048 163.392 7.296 11.904 12.672 25.088 12.672 40 0 42.88-34.816 77.696-77.76 77.696-14.528 0-27.392-5.056-38.976-12.032-46.4 31.744-101.376 54.656-164.48 65.92-3.84 39.296-35.904 70.4-76.224 70.4-38.656 0-69.312-28.736-75.264-65.728C375.68 815.104 309.76 790.208 255.744 753.216 244.16 760 231.424 764.992 217.024 764.992c-42.88 0-77.696-34.752-77.696-77.696 0-14.848 5.312-27.968 12.48-39.744C119.296 598.976 97.024 543.36 85.824 483.904 46.272 480.192 14.976 448 14.976 407.552c0-39.04 29.248-69.952 66.752-75.456 9.024-61.504 31.744-121.92 63.68-174.272-3.904-9.28-6.08-19.392-6.08-30.016 0-42.88 34.752-77.632 77.696-77.632 7.04 0 13.376 2.24 19.904 3.968 18.432-14.08 37.44-26.56 57.856-35.136l31.104 62.144c-13.184 3.904-25.344 9.856-37.184 16.448 3.904 9.28 6.08 19.456 6.08 30.208 0 42.88-34.752 77.696-77.696 77.696-9.152 0-17.6-2.304-25.728-5.184-26.112 46.464-42.752 99.456-49.024 148.672 16.832 14.272 28.096 34.752 28.096 58.56 0 22.016-9.344 41.664-24 55.808 9.984 52.16 30.784 103.104 62.016 147.968 2.944-0.32 5.568-1.728 8.64-1.728 42.944 0 77.696 34.752 77.696 77.696 0 3.584-1.536 6.592-2.048 9.984 48 34.368 106.688 58.24 176.192 65.344 14.272-17.216 34.88-28.736 58.944-28.736 22.272 0 41.984 9.6 56.192 24.576 57.28-9.92 106.752-31.232 147.968-60.864-0.448-3.52-2.048-6.656-2.048-10.368 0-42.944 34.752-77.696 77.696-77.696 3.136 0 5.824 1.408 8.896 1.792 31.104-44.864 51.904-95.872 61.824-147.968-14.656-14.144-24.064-33.792-24.064-55.872 0-23.36 10.816-43.648 27.136-57.856-8.64-50.112-31.488-101.056-61.696-146.624-4.096 0.704-7.808 2.432-12.032 2.432-42.944 0-77.696-34.816-77.696-77.696 0-7.616 2.304-14.464 4.288-21.376-11.648-9.536-23.488-18.048-35.392-25.28l31.04-62.144c18.688 10.368 36.16 22.72 53.056 36.032 7.808-2.624 15.872-4.928 24.64-4.928 42.944 0 77.76 34.752 77.76 77.632 0 11.712-3.008 22.528-7.552 32.448 33.024 51.328 56.192 109.696 65.28 171.84 37.44 5.568 66.624 36.48 66.624 75.456C1009.664 448.064 978.368 480.256 938.752 483.904z"  horiz-adv-x="1024" />

    
    <glyph glyph-name="wu" unicode="&#58882;" d="M840-76.86400000000003L183.936-76.86400000000003c-12.352 0-22.336 9.984-22.336 22.4L161.6 840.064c0 12.352 9.984 22.4 22.336 22.4l492.032 0c12.224 0 22.464-10.048 22.464-22.4 0-12.288-10.048-22.336-22.464-22.336L206.272 817.728l0-849.92 611.328 0L817.6 679.04c0 12.352 9.984 22.336 22.4 22.336 12.224 0 22.4-9.984 22.4-22.336l0-733.504C862.4-66.88 852.224-76.86400000000003 840-76.86400000000003zM840 656.704l-163.968 0c-12.288 0-22.464 9.984-22.464 22.336L653.568 840.128c0 8.96 5.376 17.152 13.76 20.608 8.32 3.584 17.856 1.664 24.32-4.672l163.968-161.088c6.528-6.336 8.512-16 5.056-24.384S849.152 656.704 840 656.704zM698.368 701.376l86.848 0-86.848 85.376L698.368 701.376zM754.944 545.664c0-14.464-11.84-26.112-26.048-26.112L295.168 519.552c-14.4 0-26.112 11.648-26.112 26.112l0 0c0 14.4 11.712 26.048 26.112 26.048l433.6 0C743.104 571.7760000000001 754.944 560.1279999999999 754.944 545.664L754.944 545.664zM754.944 412.672c0-14.464-11.84-26.112-26.048-26.112L295.168 386.56c-14.4 0-26.112 11.648-26.112 26.112l0 0c0 14.4 11.712 26.048 26.112 26.048l433.6 0C743.104 438.784 754.944 427.136 754.944 412.672L754.944 412.672zM754.944 279.552c0-14.592-11.84-25.984-26.048-25.984L295.168 253.56799999999998c-14.4 0-26.112 11.584-26.112 25.984l0 0c0 14.4 11.712 26.048 26.112 26.048l433.6 0C743.104 305.6 754.944 293.952 754.944 279.552L754.944 279.552zM754.944 146.688c0-14.592-11.84-26.112-26.048-26.112L295.168 120.57600000000002c-14.4 0-26.112 11.84-26.112 26.112l0 0c0 14.464 11.712 25.984 26.112 25.984l433.6 0C743.104 172.67200000000003 754.944 161.15200000000004 754.944 146.688L754.944 146.688z"  horiz-adv-x="1024" />

    
    <glyph glyph-name="clock" unicode="&#58883;" d="M761.92 800.64c-66.624 0-116.544-41.664-116.544-41.664l258.24-216.64c0 0 25.024 42.688 25.024 91.648C928.64 700.672 878.656 800.64 761.92 800.64zM261.952 800.64c-116.672 0-166.656-99.968-166.656-166.656 0-48.96 25.024-91.648 25.024-91.648l258.304 216.64C378.688 758.912 328.64 800.64 261.952 800.64zM512 700.672c-197.888 0-358.336-160.448-358.336-358.272 0-99.328 40.448-189.184 105.664-254.144l-95.488-95.424 23.552-23.616 96.64 96.704C345.984 14.720000000000027 425.408-16 512-16c86.464 0 165.696 30.656 227.584 81.536l98.112-98.176 24.128 24.256-96.896 97.088c65.152 64.896 105.344 154.624 105.344 253.76C870.272 540.1600000000001 709.888 700.672 512 700.672zM574.656 256.832c0-18.368-16.512-33.344-36.672-33.344L366.208 223.48800000000006c-20.288 0-36.736 14.912-36.736 33.344 0 18.496 16.448 33.408 36.736 33.408L501.12 290.24l0 144.64c0 18.432 16.512 33.344 36.8 33.344 20.16 0 36.672-14.976 36.672-33.408L574.592 256.832z"  horiz-adv-x="1024" />

    
    <glyph glyph-name="choose" unicode="&#58884;" d="M21.376 603.136L512 66.75199999999995 1002.688 603.136Z"  horiz-adv-x="1024" />

    
    <glyph glyph-name="lumigouff580e" unicode="&#58885;" d="M923.52 651.52l-6.4 3.328L917.12 789.376c0 4.864-1.792 9.088-4.352 12.8-0.256 0.384-0.576 0.832-0.768 1.216-1.28 1.408-2.368 2.624-3.776 3.712-0.768 0.64-1.472 1.152-2.368 1.6-1.344 0.768-2.432 1.472-3.904 1.984-1.856 0.704-3.904 1.088-5.952 1.216-0.576 0-0.96 0.256-1.408 0.256 0 0-0.128 0-0.256 0 0 0 0 0-0.128 0L129.856 812.16c-9.92 0-18.688-6.656-21.504-16.256C106.944 791.104 107.136 786.048 108.736 781.6320000000001 108.032 779.392 107.392 777.216 107.392 774.72l0-119.808L100.8 651.5840000000001C91.52 650.304 84.608 646.08 84.608 635.712l0-641.216 2.048-1.984c2.56-18.944 17.408-33.344 36.48-34.56l0.448-0.512 775.68 0c20.992 0 37.76 16.704 39.168 37.568l0.96 0.896L939.392 635.712C939.52 645.952 932.608 650.24 923.52 651.52zM832.384 766.592l-60.48-39.104c-5.632-4.48-9.024-11.584-8.704-18.944 0.192-7.36 3.968-14.144 10.176-18.176l68.352-38.144L186.432 652.2239999999999l75.2 39.488C268.16 695.744 272.192 702.912 272.32 710.656c0 7.808-3.776 15.104-10.24 19.392l-66.688 36.48L832.384 766.592 832.384 766.592zM872.128 748.544l0-69.632-59.648 31.872L872.128 748.544zM152.384 749.888l65.344-38.336L152.384 678.016 152.384 749.888zM894.528 3.008000000000038L129.6 3.008000000000038 129.6 606.4639999999999l764.928 0L894.528 3.008000000000038zM336.128 438.528c16.384-90.432 81.024-150.336 168.32-150.336 87.232 0 151.744 59.84 168.192 150.016 13.888 7.296 23.168 21.696 23.168 38.592 0 24-19.328 43.648-43.072 43.648S609.728 500.8 609.728 476.8c0-14.272 6.784-26.752 17.28-34.752C614.656 383.424 575.616 333.82399999999996 504.512 333.82399999999996c-71.04 0-109.952 49.472-122.496 107.904C392.64 449.664 399.552 462.4 399.552 476.8c0 24-19.328 43.648-43.008 43.648-23.808 0-43.072-19.648-43.072-43.648C313.472 460.16 322.752 445.888 336.128 438.528z"  horiz-adv-x="1024" />

    
    <glyph glyph-name="jiantouyou" unicode="&#58886;" d="M380.096 856.768L261.632 740.48 645.632 387.584 276.288 25.087999999999965 387.456-88.832 867.968 382.784Z"  horiz-adv-x="1024" />

    
    <glyph glyph-name="jiantouzuo" unicode="&#58887;" d="M756.928 814.72L697.216 874.176 264 443.392 264 443.392 204.288 384 697.216-106.17600000000004 756.928-46.78399999999999 323.776 384Z"  horiz-adv-x="1024" />

    
    <glyph glyph-name="xinshouliyu3fbbef" unicode="&#58888;" d="M938.496 572.736L85.504 572.736c-18.112 0-32.832-14.08-32.832-31.488l0-283.392c0-17.344 14.656-31.424 32.832-31.424l32.768 0 0-314.88c0-17.408 14.72-31.488 32.832-31.488L872.96-119.93600000000004c18.048 0 32.832 14.08 32.832 31.488l0 314.88 32.768 0c18.112 0 32.832 14.08 32.832 31.424L971.392 541.248C971.328 558.656 956.608 572.736 938.496 572.736zM446.4-25.47199999999998c0-17.344-14.656-31.488-32.832-31.488L216.768-56.960000000000036c-18.176 0-32.832 14.144-32.832 31.488l0 251.968c0 17.344 14.656 31.424 32.832 31.424l196.864 0c18.112 0 32.832-14.144 32.832-31.424L446.464-25.47199999999998zM446.4 352.384c0-17.408-14.656-31.488-32.832-31.488L151.104 320.89599999999996c-18.112 0-32.832 14.08-32.832 31.488L118.272 478.272c0 17.408 14.72 31.488 32.832 31.488l262.464 0c18.112 0 32.832-14.08 32.832-31.488L446.4 352.384zM840.128-25.47199999999998c0-17.344-14.656-31.488-32.832-31.488L610.432-56.960000000000036c-18.112 0-32.832 14.144-32.832 31.488l0 251.968c0 17.344 14.656 31.424 32.832 31.424l196.864 0c18.112 0 32.832-14.144 32.832-31.424L840.128-25.47199999999998zM905.728 352.384c0-17.408-14.72-31.488-32.832-31.488L610.432 320.89599999999996c-18.112 0-32.832 14.08-32.832 31.488L577.6 478.272c0 17.408 14.656 31.488 32.832 31.488l262.528 0c18.048 0 32.832-14.08 32.832-31.488L905.792 352.384zM366.336 573.056l301.888 0c51.712 35.648 100.608 81.984 106.368 132.48 2.88 24.64-2.624 60.736-45.056 92.928-23.488 17.856-47.424 26.88-70.912 26.88-74.816 0-117.184-88.128-140.096-166.848-27.328 100.352-80.128 229.376-170.88 229.376-26.432 0-52.864-10.944-78.4-32.704-50.56-42.88-55.552-87.488-50.752-117.312C228.928 671.168 298.88 613.8240000000001 366.336 573.056zM658.56 749.76c7.232 0 16.64-4.16 27.072-12.032 16.896-12.864 15.936-20.736 15.68-23.36-3.136-27.52-56.96-70.848-119.744-106.56C599.936 683.968 630.208 749.76 658.56 749.76zM316.224 797.056C324.544 804.032 336.64 812.352 347.584 812.352c40.64 0 82.432-102.336 106.752-201.856C377.6 649.7280000000001 298.304 705.408 291.264 750.08 290.24 756.2239999999999 287.68 772.736 316.224 797.056z"  horiz-adv-x="1024" />

    
    <glyph glyph-name="yaoyiyaoffcc00" unicode="&#58889;" d="M335.744 44.28800000000001c-6.016 0-10.24 0.512-13.312 1.792-5.248 2.048-10.368 6.4-15.104 13.44C300.544 69.50400000000002 302.848 77.952 305.92 83.20000000000005c3.84 6.656 8.832 11.392 14.848 13.312 2.304 0.768 6.016 1.408 21.504 3.328C355.84 101.88800000000003 358.272 104.70399999999995 358.272 104.70399999999995c1.152 1.792 1.024 5.248-0.256 9.728L316.16 261.76c-4.096-3.456-7.68-6.528-10.624-8.96C300.8 248.44799999999998 295.808 244.60799999999995 290.56 240.76800000000003 284.928 236.288 279.168 232.96000000000004 273.408 231.03999999999996c-2.688-0.768-5.248-1.28-7.936-1.28-4.224 0-8.192 1.28-12.032 3.2C247.296 236.79999999999995 243.328 242.30399999999997 241.92 248.70399999999995 240.64 254.84799999999996 240.64 259.712 242.048 263.93600000000004 243.072 267.52 246.144 272.51199999999994 268.672 289.53599999999994c18.176 13.824 24.576 20.736 26.88 24.064l4.096 5.76L250.368 492.288 208.768 480.384C205.952 479.744 203.136 479.232 200.32 479.232c-3.584 0-7.168 0.768-10.752 2.048-6.912 2.56-11.52 8.576-13.824 17.792-2.816 9.984 0 16.768 3.072 20.736 3.84 5.376 8.832 8.832 14.72 10.624l42.496 12.16-32 112.128C202.24 660.992 202.24 666.88 204.16 672.384c2.304 6.4 8.576 10.88 19.456 13.696 3.456 0.896 6.528 1.28 9.472 1.28 11.264 0 19.328-6.4 22.656-18.048l32-112 31.616 8.96c1.536 0.512 3.072 0.64 4.736 0.64 3.456 0 7.296-1.024 11.392-2.944 6.4-2.944 10.624-8.192 13.056-15.616C350.72 541.184 350.336 534.528 347.392 528.384 344.32 521.9839999999999 339.584 517.76 333.568 516.096L302.08 507.008l37.76-132.352c1.664 3.456 3.072 6.656 4.352 9.472 2.944 7.552 5.376 12.8 7.552 15.872 2.56 3.84 6.656 7.296 12.544 9.856 2.688 1.408 5.504 1.792 8.448 1.792 4.224 0 8.448-1.152 12.672-3.712 7.168-4.48 11.136-13.184 11.776-25.472 0.384-7.936-3.712-23.424-38.016-72.832l53.888-188.928C417.152 106.24000000000001 416.64 92.28800000000001 411.52 79.36000000000001 406.144 66.30399999999997 396.032 56.19200000000001 381.44 50.68799999999999c-5.376-2.56-15.232-4.48-29.568-5.504C345.472 44.799999999999955 340.096 44.28800000000001 335.744 44.28800000000001zM539.52 98.30399999999997C527.36 98.30399999999997 518.016 102.78399999999999 512 111.48800000000006 504.192 122.49599999999998 499.2 131.712 497.024 139.77599999999995l-21.376 74.24c-2.944 8.96-2.816 17.536 0.256 24.192 3.328 7.808 10.624 13.312 22.016 16.64 2.176 0.64 4.224 1.024 6.272 1.024 10.496 0 18.048-7.936 22.4-23.68l16-55.936c2.048-6.912 5.248-13.184 9.344-17.92 0.64-0.768 2.56-3.072 8.192-3.072 2.944 0 6.4 0.64 10.496 1.92L670.72 185.72799999999995 628.608 333.312 442.24 280.192C440.064 279.808 437.888 279.552 435.712 279.552c-3.456 0-7.04 0.768-10.624 2.176C418.304 284.288 413.824 290.55999999999995 411.776 300.03200000000004 410.112 306.688 411.008 312.96000000000004 414.464 318.592c0.768 1.152 1.664 2.432 2.688 3.328-3.968 2.176-7.168 5.12-9.728 9.728C402.816 339.58399999999995 401.92 348.03200000000004 404.736 356.352c0.768 2.432 2.944 6.4 13.312 20.224 6.912 9.728 12.928 20.736 17.92 32.64 5.12 12.8 8.96 24.192 11.776 33.792 2.688 9.344 4.352 19.584 5.12 30.208C453.504 482.304 454.4 490.24 455.68 496.768c-0.128 0-0.256 0-0.384 0-3.584 0-7.552 0.768-11.52 2.688-3.84 1.28-8.192 4.992-13.44 11.392-4.224 5.12-10.624 12.16-19.072 20.736-8.576 8.704-16.64 15.744-24.448 21.12-8.576 6.016-14.08 10.624-17.024 13.824C366.592 570.1120000000001 364.544 574.336 363.52 578.816 361.6 585.472 362.496 592.384 366.336 599.04c0.896 1.536 2.176 3.072 3.84 4.608C368.64 603.008 367.488 602.752 366.592 602.624c-4.736-1.28-8.448-1.792-11.392-1.792-2.688 0-4.736 0.512-6.528 1.28C329.216 610.688 327.808 621.312 330.24 628.864c2.688 8.192 5.376 13.44 8.32 16.64 2.944 3.328 8.064 6.4 16 9.728 6.784 2.816 14.848 6.784 24.064 11.52 53.76 27.008 93.44 48 118.144 62.08 24.448 14.336 52.864 32 84.352 52.736 31.488 20.608 51.456 34.688 59.648 41.856 9.6 8.192 17.792 12.8 25.088 13.952 1.28 0.128 2.432 0.256 3.456 0.256 7.168 0 13.312-3.2 18.688-9.728C693.76 820.992 695.808 812.288 693.76 802.816c-1.664-7.296-7.808-15.36-19.328-25.472C663.808 768 629.632 746.3679999999999 570.112 710.784 511.744 675.84 464.512 649.344 429.952 631.9359999999999 407.936 620.672 393.728 613.6320000000001 384.128 609.5360000000001c1.28 0.128 2.688 0.256 4.096 0.256 4.352-0.128 11.52-1.792 30.592-13.952 13.952-8.832 27.264-21.504 39.808-37.632 17.152-22.4 19.456-30.592 19.712-35.328 0.128-2.944-0.256-5.76-1.28-8.704 2.688-0.128 5.632-0.64 8.96-1.28C501.76 509.312 510.208 497.92 509.824 480.768 509.696 478.848 509.44 476.672 509.184 473.856l276.992 78.848C789.76 553.856 793.216 554.496 796.16 554.496c9.472 0 16.128-4.992 19.072-14.08 3.328-10.368 3.328-18.56 0.128-24.32C812.288 509.952 807.168 506.112 800 504.064l-152.448-43.52L665.856 396.8l181.248 51.584c3.84 1.28 7.424 1.92 10.496 1.92 9.472 0 16.128-4.864 18.944-13.696C879.744 426.24 879.872 418.432 876.8 412.416 873.728 406.272 868.48 402.048 861.056 399.872L679.68 348.03200000000004l42.112-147.456 101.76 29.184c10.88 3.072 14.08 6.016 14.976 7.168C840.704 239.36 841.856 242.688 842.624 246.784c0.64 4.864 0.128 9.856-1.28 15.104L826.752 312.192c-1.024 3.584-1.408 8.704-1.28 15.872C825.6 334.592 829.056 343.29600000000005 844.544 347.648c3.072 0.64 5.76 1.28 8.32 1.28 5.504 0 10.368-1.792 14.336-4.992 5.12-4.224 8.704-9.856 10.624-17.024L898.56 254.20799999999997c2.176-7.04 2.944-14.592 2.56-22.528C900.864 224.25599999999997 898.56 216.192 894.208 208.25599999999997c-4.736-8.96-16.256-16-35.072-21.504L558.592 101.12C551.68 98.94399999999996 545.152 98.30399999999997 539.52 98.30399999999997zM497.92 417.92C486.528 389.248 474.88 366.08000000000004 463.36 349.18399999999997 460.16 344.32000000000005 456.96 340.096 454.016 336.51199999999994l160.64 45.824L596.48 445.824 497.92 417.92zM596.48 550.4c-4.352 0-8.448 1.024-11.904 3.456-4.352 2.688-8.32 5.888-11.52 9.216L557.056 578.688c-14.464 13.568-25.216 23.04-31.872 27.776-7.424 5.376-12.416 9.6-15.488 12.8C506.24 623.232 504.064 628.096 503.04 633.6c-0.64 3.712 0 8.064 2.048 13.184C507.264 652.288 511.872 656.384 518.528 659.2 522.112 660.608 526.08 661.376 530.176 661.376c2.816 0 5.76-0.256 8.704-1.024 11.264-3.2 24.32-11.52 40.32-25.728 15.36-13.44 25.344-22.656 30.336-28.032 5.248-5.632 9.216-11.136 11.776-16.256 2.944-6.144 3.456-13.184 1.664-21.376-1.408-6.4-5.888-14.464-19.072-17.408C601.6 550.784 599.04 550.4 596.48 550.4zM699.264 560.384c-2.432 0-4.608 0.256-6.912 1.28C683.008 565.376 677.504 569.088 674.944 573.568 672.64 577.7919999999999 671.616 582.784 672.128 588.672 672.256 592 673.92 597.376 677.12 605.184c2.688 6.4 6.144 17.408 10.112 32C691.328 652.288 694.144 663.04 695.936 669.44c1.536 5.888 2.56 13.696 2.944 22.912 0.512 10.24 1.408 18.304 2.944 24.32 1.664 7.04 4.352 12.16 8.064 15.872 5.12 4.608 10.624 6.784 16.896 6.784 2.176 0 4.48-0.128 6.784-0.768C742.4 736.256 748.8 730.752 752.256 722.432c3.072-7.296 4.48-15.36 4.224-24.064C755.968 687.8720000000001 752.768 669.056 746.88 640.896 740.864 612.2239999999999 733.568 591.8720000000001 724.48 578.56 716.288 566.2719999999999 708.096 560.384 699.264 560.384zM1898.752 45.952c-7.168 0-15.616 1.664-25.856 4.224L1564.16 140.79999999999995c-22.272 6.784-34.048 18.176-34.688 34.56-0.64 13.952 0.256 24.704 2.56 32.896l22.016 76.672c2.432 9.088 7.04 16.256 13.696 20.992 4.096 2.688 8.96 3.84 14.848 3.84 3.968 0 8.32-0.768 13.184-1.92 5.504-1.792 9.728-4.736 12.288-9.344 3.456-6.144 3.456-14.464 0.256-25.728l-16.768-57.088c-2.048-7.68-2.688-14.464-1.792-20.992 0.64-4.992 6.016-8.576 15.744-11.52l103.04-30.208 44.416 152.064-191.616 56.064c-5.376 1.792-10.24 5.248-14.08 10.496-4.48 5.888-4.864 13.568-1.536 22.912 2.304 7.04 6.528 12.032 12.416 14.848 1.536 0.768 2.944 1.152 4.48 1.664-2.432 3.84-3.456 8.576-3.2 13.824 0.384 9.344 4.224 17.024 11.136 22.656 1.92 1.664 6.016 4.096 22.656 10.624 11.264 4.352 22.528 10.496 33.664 18.56 11.264 8.064 20.992 15.872 28.672 22.656 7.552 6.784 14.72 14.848 21.12 23.68 5.632 7.68 10.752 14.08 15.488 19.2-2.944 1.664-6.144 4.608-9.088 8.832-2.56 3.2-4.352 8.832-5.376 17.28-0.896 6.4-2.688 16.128-5.376 28.416-2.56 11.904-5.76 22.528-9.6 31.616-4.096 10.112-6.528 16.896-7.168 21.248-0.768 4.864-0.384 9.728 1.152 14.08 2.048 6.912 6.656 12.288 13.44 15.872 2.944 1.408 6.144 2.304 9.472 2.304 4.864 0 10.112-1.664 15.36-4.992 3.712-2.56 8.96-7.68 18.944-28.8 7.296-15.232 11.904-33.664 13.824-54.528 2.688-28.8 0.256-37.248-2.176-41.472-1.536-2.688-3.584-5.12-6.016-7.04 2.432-1.664 4.736-3.712 7.296-6.144 11.648-11.648 12.8-26.112 3.072-40.576-1.152-1.664-2.688-3.712-4.608-5.888l284.672-83.328c21.376-6.272 19.968-20.864 18.56-26.752-2.688-10.752-7.168-17.792-13.184-21.248-3.584-1.92-7.68-3.072-11.904-3.072-2.688 0-5.248 0.512-7.936 1.536l-156.672 45.568-19.328-65.792 186.496-54.528c21.632-6.4 20.352-20.736 18.688-26.24-2.688-10.752-7.04-17.664-13.056-20.992-3.712-2.56-7.936-3.584-12.288-3.584-2.688 0-5.376 0.384-8.192 1.28l-186.368 54.656-44.544-152.064 104.704-30.592c5.632-1.664 10.24-2.688 13.696-2.688 1.792 0 2.688 0.256 3.2 0.512 3.2 0.896 6.272 3.072 9.216 6.912C1894.4 115.20000000000005 1896.832 119.80799999999999 1898.496 125.31200000000001l15.104 51.968c1.152 3.456 3.584 8.32 7.552 14.336 2.56 3.584 7.424 8.32 16.512 8.32 3.072 0 6.784-0.768 10.624-1.92 9.344-3.072 15.104-8.32 17.408-15.488 2.176-6.784 2.176-13.568 0-20.608l-21.76-74.496c-2.176-7.808-5.504-14.72-9.984-20.992-4.608-6.656-11.008-12.16-19.072-17.024C1910.784 47.23199999999997 1905.28 45.952 1898.752 45.952zM1767.424 354.432l19.328 65.92-101.504 29.568c-25.6-18.56-48.384-32.384-67.712-40.96-5.76-2.432-11.008-4.608-15.744-6.016L1767.424 354.432zM1394.176 193.024c-3.84 0-7.808 0.384-11.904 1.28-5.888 1.024-15.36 4.48-28.672 11.52-17.792 8.832-22.656 13.44-24.96 16.768-3.584 4.48-5.504 11.264-5.76 19.712-0.384 12.544 6.144 18.688 11.776 21.504 5.12 2.688 10.368 3.968 15.232 3.968 1.664 0 3.328-0.256 4.864-0.512 0.256 0 0.512-0.256 0.64-0.256 1.664-0.512 5.504-2.048 19.968-8.448 9.088-4.224 13.44-4.992 15.36-4.992 0.896 0 1.152 0.256 1.152 0.256 2.048 1.024 3.84 3.968 5.376 8.448l113.536 388.224-42.752 12.672c-6.656 1.92-12.032 5.504-16 11.008-4.608 6.144-5.376 13.696-2.432 22.912 2.944 9.984 9.216 14.464 13.952 16.256 3.712 1.408 7.296 2.176 10.88 2.176 2.56 0 5.12-0.384 7.552-1.152l43.904-12.8 33.664 115.2c2.048 6.656 5.376 11.904 9.984 15.616 2.944 2.304 6.784 3.456 11.392 3.456 3.712 0 7.936-0.64 12.928-2.304 16.128-5.504 23.04-17.024 18.56-32.128L1578.624 686.08l32.512-9.6c4.736-1.408 9.088-4.992 12.8-10.752 3.84-6.144 4.736-13.056 2.688-20.48s-6.016-13.056-11.776-16.768c-4.224-2.56-8.448-3.84-12.8-3.84-1.92 0-3.968 0.256-5.888 0.768l-32.64 9.6-44.544-152.192-13.312-48-57.728-197.504c-4.352-14.592-12.416-26.496-24.064-34.688C1415.296 195.96799999999996 1405.312 193.024 1394.176 193.024zM1950.72 460.288c-9.088 0-14.336 4.352-17.024 7.936-6.144 8.192-8.832 14.592-8.704 19.84 0.256 4.992 2.304 9.728 5.888 14.464 2.048 2.944 6.272 6.656 13.312 11.776 5.888 4.096 14.848 11.52 26.368 22.272 11.776 10.88 20.224 18.56 25.088 23.296 4.736 4.48 9.856 10.624 15.232 18.304 6.016 8.704 11.264 15.232 16 19.584 5.376 5.12 10.496 8.064 15.616 9.344 2.048 0.128 3.456 0.512 5.248 0.512 7.296 0 13.312-2.816 18.688-8.32 6.272-6.528 8.704-14.976 7.424-24.064-1.408-7.936-4.608-15.744-9.472-23.168-6.272-8.96-19.072-23.552-39.936-44.8-20.992-21.632-38.528-35.328-53.632-42.112C1962.88 461.824 1956.352 460.288 1950.72 460.288zM1861.12 505.984c-3.2 0-6.656 0.64-10.24 1.92-7.296 2.176-12.672 6.4-15.488 12.672-2.304 4.864-3.968 9.728-4.992 14.336l-5.376 22.4c-4.992 19.712-9.216 33.92-12.416 41.728-3.584 8.576-5.632 15.104-6.4 19.584-0.896 5.248-0.256 10.624 1.92 16 1.408 3.584 4.352 7.04 8.832 10.368 3.584 2.56 7.936 3.84 12.928 3.84 1.664 0 3.584-0.128 5.504-0.512 6.784-1.152 12.928-4.48 18.176-9.984 8.064-9.088 14.848-23.552 21.12-44.544 6.016-20.096 9.6-33.536 11.008-41.088 1.408-7.808 1.792-14.848 1.28-20.608-0.768-6.784-4.096-13.312-10.112-19.328C1872.64 508.416 1867.136 505.984 1861.12 505.984zM2074.752 618.88c-1.792 0-3.456 0-5.376 0.128-15.616 0.512-60.16 7.936-135.936 23.04-74.624 14.848-133.632 28.032-175.488 39.296C1715.2 692.48 1690.88 699.904 1683.456 703.744c-8.704 4.352-13.184 7.936-14.976 11.776-11.136 21.632-2.688 30.336 3.456 33.536 8.064 4.352 13.952 6.4 18.688 6.784 0.512 0.128 1.024 0.128 1.664 0.128 4.48 0 10.624-1.408 18.56-3.968 7.808-2.688 17.536-5.504 28.672-8.32 65.152-17.536 113.92-29.696 144.896-36.224 31.104-6.528 67.84-13.184 109.44-19.584 41.344-6.528 68.608-9.984 80.768-10.496 13.824-0.384 23.936-2.688 30.592-6.912C2113.152 665.6 2117.248 657.92 2117.12 647.936c-0.128-9.728-4.736-17.792-13.312-23.424C2098.048 620.8 2088.704 618.88 2074.752 618.88zM1167.872 353.79200000000003c-14.336 0-28.8 0.384-43.264 1.28-152.32 7.424-260.864 49.92-265.472 51.584-15.36 6.272-22.912 23.808-16.768 39.04 6.144 15.36 23.552 22.912 38.912 16.768 1.792-0.768 105.984-41.216 248.192-47.872 189.184-8.576 352.896 43.776 486.528 155.776 12.672 10.624 31.744 8.96 42.368-3.712 10.624-12.8 8.832-31.744-3.84-42.368C1520.768 412.288 1353.216 353.79200000000003 1167.872 353.79200000000003zM2501.632 606.2080000000001c1.152 3.712 4.864 9.6 11.136 17.92s13.696 19.456 22.4 33.408c8.704 13.952 16.64 28.16 23.68 42.752s12.8 25.472 17.28 32.64 12.416 9.6 23.424 7.168c5.376-1.408 9.984-4.48 13.824-8.96 3.712-4.608 5.888-9.472 6.4-14.848 0.256-5.632-1.152-12.416-4.352-20.48l-9.216-23.168 211.712 0c7.04 0 13.312-2.56 18.816-7.552 5.632-5.12 8.32-10.752 8.448-17.408s-2.56-12.416-7.808-17.408-11.904-7.552-19.584-7.552l-115.968 0c7.552-14.976 14.464-29.952 20.48-45.184 6.272-15.104 8.96-25.6 8.448-31.36s-2.944-11.264-7.808-16.512c-4.48-5.248-11.264-7.68-19.968-7.04s-15.36 3.968-19.968 10.112c-4.736 6.016-8.96 14.464-13.056 25.216-3.84 10.752-13.312 32.256-28.288 64.512l-64 0c-11.136-13.952-22.272-26.88-33.536-38.912 8.448-9.088 16.64-17.024 24.192-23.808 7.552-6.912 20.48-16.256 38.656-28.288s39.168-23.936 63.104-35.968 54.016-24.448 90.24-37.376c36.096-13.056 62.08-21.76 77.952-26.496 15.744-4.608 25.728-11.136 29.696-19.456 4.096-8.32 3.072-15.872-2.816-22.528-6.144-6.656-14.336-10.24-25.216-10.496-13.056-0.512-41.088 7.04-84.352 22.4-43.52 15.36-83.712 33.024-121.344 52.864s-65.152 35.84-82.688 48.128c-17.536 12.416-28.288 18.56-32.256 18.56-3.712-0.256-12.032-5.888-25.216-16.896-13.056-11.008-52.224-33.536-117.248-67.456l269.824 0c7.424 0 14.336-3.584 20.992-10.752 6.656-7.168 8.576-15.36 6.272-24.32-1.536-5.632-4.608-10.112-9.344-13.312s-10.112-4.992-16-4.992l-259.456 0c-12.288 0-20.736 4.992-24.96 14.848-4.48 9.984-5.632 16.768-3.328 20.736l5.504 13.184c-17.408-7.808-34.432-15.36-50.816-22.528-16.384-7.168-28.8-12.416-36.992-15.616-8.064-3.2-22.272-8.32-41.984-15.488-19.968-7.04-34.56-11.008-43.52-11.648-8.96-0.768-16.768 0.896-22.784 4.992-6.272 3.968-9.472 9.984-9.6 17.792-0.256 7.936 1.408 13.824 4.864 18.048 3.584 4.096 10.112 8.064 19.456 11.904 9.472 3.712 27.776 10.24 54.784 19.2 27.008 8.96 56.448 20.096 88.704 33.408 32.128 13.184 61.696 29.824 88.96 50.048 27.264 20.224 45.952 35.328 56.192 45.44 10.112 10.112 15.488 15.616 16.256 16.256l9.216 6.912C2499.712 597.504 2500.48 602.624 2501.632 606.2080000000001zM2474.624 678.528c7.424 0 13.696-2.816 19.328-8.32 5.504-5.504 8.192-11.904 8.192-18.944-0.256-7.04-2.944-13.184-8.064-18.432s-11.648-7.808-19.456-7.808l-85.376 0c4.864-12.928 9.216-24.32 13.312-34.304 4.096-9.984 6.4-18.56 7.04-25.856s-1.92-15.232-7.808-23.68c-5.76-8.448-13.312-10.752-22.912-7.168-9.344 3.712-15.616 8.064-18.688 13.312-2.944 5.248-6.912 14.592-11.52 27.904-4.736 13.312-10.88 29.824-18.56 49.664l-48.512 0c-4.736-6.144-7.936-10.624-9.984-13.568l-24.576-35.2c-17.152-23.552-31.36-37.248-42.624-41.088-11.008-3.968-19.456-1.92-25.088 6.016-5.632 7.936-7.296 16-4.864 24.064 1.28 3.84 5.632 10.24 13.056 18.816 7.296 8.704 14.848 18.56 22.656 29.44 7.68 10.88 16.896 25.344 27.392 43.008 10.496 17.792 18.688 33.408 24.192 46.72 5.76 13.312 11.776 23.808 18.176 31.36 6.4 7.68 13.824 9.216 22.4 4.992 8.704-4.352 14.208-9.216 16.64-14.848 3.328-8.576 3.584-15.872 0.384-22.016l-10.24-24.192L2474.624 678.4zM2626.688 121.47199999999998c-5.632 3.84-9.6 7.424-11.776 10.496-2.304 2.944-3.584 6.784-4.096 11.136s2.048 11.136 7.552 20.096l23.552 36.992c13.44 22.016 25.728 45.952 36.736 71.936 11.008 25.856 18.56 44.928 22.144 56.96 3.584 12.16 7.296 19.968 10.624 23.68 3.456 3.712 10.112 6.4 19.968 8.448 9.728 1.92 17.152-0.256 22.016-6.784 4.992-6.4 7.424-13.568 7.424-21.376-0.256-6.656-3.84-21.76-11.136-45.568-7.04-24.064-18.176-50.048-33.28-78.208-14.976-28.288-26.24-46.976-33.792-56.192l-23.552-31.488 124.032 0c7.296 0 13.568-3.2 19.456-9.728 5.76-6.528 8.448-13.312 8.192-19.968-0.512-6.784-3.456-12.288-8.704-17.024-5.248-4.48-11.52-6.784-18.944-6.784l-548.48 0c-7.552 0-13.824 2.304-18.944 7.04-5.248 4.736-7.936 11.008-8.448 18.688-0.512 7.936 2.048 14.464 7.552 19.712s12.288 7.936 19.968 7.936L2626.688 121.47199999999998zM2397.696 205.44000000000005c4.992-9.472 7.808-17.024 7.936-22.528s-2.048-11.904-7.04-18.944c-4.864-7.04-12.032-10.496-21.248-10.24-6.784 0-12.16 1.92-16.256 5.76-4.224 3.712-8.704 10.624-13.696 20.736-5.12 9.984-17.792 30.976-38.272 63.232-20.224 32-32.256 50.56-35.712 55.168-3.584 4.608-6.528 9.472-8.704 14.592s-2.432 10.624-0.512 16.256c1.792 5.76 6.272 10.624 13.056 14.72 6.912 4.096 12.544 5.888 17.024 5.632 8.96-1.024 23.04-15.616 41.472-43.776 18.688-28.288 31.232-47.616 37.504-58.368C2379.52 237.312 2387.584 222.976 2397.696 205.44000000000005zM2547.072 192.64c1.408-9.344 1.152-17.408-1.408-24.064-2.304-7.04-8.192-11.52-17.792-13.568-9.6-2.176-17.536-0.512-23.552 5.12-3.968 3.2-6.784 7.552-8.448 12.8-1.792 5.504-4.224 16.384-7.296 32.896s-7.552 33.408-13.44 50.816c-5.76 17.28-11.52 31.744-17.024 43.392s-9.216 20.352-11.008 26.24c-2.048 5.76-1.792 12.16 0.768 19.072 2.304 6.784 7.808 11.136 16.256 13.056 8.576 1.792 17.28-1.152 25.728-8.96 7.936-7.552 17.28-25.984 28.288-55.424 10.88-29.312 18.304-52.48 21.888-69.376C2543.744 207.36 2546.176 196.736 2547.072 192.64zM2956.8 645.504c-9.472 0-17.536 2.816-24.064 8.576s-9.856 12.288-9.984 19.712c-0.128 7.424 2.944 13.952 9.344 19.84s14.592 8.704 24.576 8.704l362.24 0c7.68 0 14.208-2.688 19.968-7.936 5.504-5.248 8.704-11.648 9.216-19.328 0.768-7.68-2.176-14.464-8.192-20.48-6.144-6.144-13.184-9.088-20.992-9.088l-192.512 0c-33.664-62.592-56.96-102.016-70.016-118.4l-28.672-37.12c35.072-0.256 74.624 1.536 118.528 5.12 43.904 3.712 78.848 8.96 104.576 15.872-6.272 10.24-12.416 20.736-18.688 31.36-6.272 10.624-11.776 20.608-16.896 29.696-4.992 9.216-7.168 16.768-6.656 22.784 0.64 6.016 4.224 11.52 10.88 16.512s13.952 6.656 22.144 4.992C3248.768 614.4 3256.192 608.512 3264 598.528c7.808-10.112 18.944-28.416 33.792-55.04 14.592-26.624 24.832-45.952 30.72-57.728 5.76-11.904 11.264-25.088 16.512-39.808s7.68-24.832 7.296-30.464c-1.024-6.144-4.096-12.032-9.216-17.536-5.248-5.632-12.032-8.192-20.224-7.808-6.272 0.256-11.264 2.304-15.488 6.016S3298.56 407.936 3293.312 419.84c-5.12 11.776-11.264 24.576-18.048 38.272-31.232-6.144-69.376-11.52-114.56-16.128l0-104.576 127.36 0c7.424 0 13.824-2.688 19.328-8.064s8.32-12.032 8.704-19.84c0.384-7.936-2.304-14.72-7.936-20.48-5.888-5.504-12.544-8.32-20.096-8.32l-127.36 0 0-130.176c52.992 8.192 90.752 15.104 113.024 20.48s37.248 7.808 45.056 7.296c16.128-1.408 24.576-8.192 25.472-20.224 0.896-12.16-1.28-20.736-6.528-25.856-7.552-7.936-50.304-18.432-128-31.744-77.824-13.312-162.432-24.32-253.696-33.152-27.008-2.688-40.448 6.528-40.448 27.776 0 9.6 2.176 16.128 6.144 19.456 4.096 3.456 10.368 5.76 18.944 7.296 8.576 1.28 28.032 3.328 58.368 6.144 30.208 2.816 64.512 6.912 102.784 12.416L3101.824 280.576l-135.808 0c-7.168 0-13.44 2.688-18.944 7.68-5.504 5.248-8.448 11.776-8.704 19.84-0.384 8.064 2.304 14.976 7.936 20.736 5.632 5.632 12.288 8.576 19.84 8.576l135.808 0L3101.952 436.864c-19.968-0.384-43.52-1.152-70.528-2.048s-45.568-1.152-55.808-0.896c-21.248 0.384-34.56 3.2-39.808 8.192-4.992 4.992-7.04 12.8-5.504 23.296 1.024 7.04 3.072 12.544 6.272 16.128 3.2 3.712 7.04 7.04 11.136 9.984l19.456 13.184c27.904 20.736 54.912 57.728 80.64 110.72l14.72 30.08L2956.8 645.504zM3443.456 661.248l0-424.192c0-8.192-2.688-15.36-8.192-21.248s-12.032-8.96-19.968-9.472c-7.808-0.512-14.848 2.304-21.248 8.32-6.272 6.144-9.472 13.568-9.472 22.4L3384.576 661.248c0 8.064 2.944 15.104 8.96 20.864 6.016 5.888 13.056 8.832 21.504 8.832 7.552-0.256 14.208-3.2 19.84-8.832C3440.64 676.48 3443.456 669.568 3443.456 661.248zM3584.768 674.816l0-519.552c0-15.488-1.792-29.44-4.992-42.368-3.456-12.928-11.264-24.448-23.168-34.944s-33.152-14.848-63.872-13.312c-16.768 0.768-33.536 2.816-50.688 6.272S3413.76 77.952 3409.024 81.91999999999996s-7.808 9.088-8.704 15.36c-1.152 6.4-0.256 13.312 2.816 20.736s9.472 12.8 19.328 16c5.632 1.792 16.128 0.768 31.488-2.944 15.232-3.584 29.312-5.376 41.728-5.12 11.52 0 19.456 2.176 23.808 6.272s6.528 12.672 6.528 25.344L3526.016 674.816c0 10.24 2.688 18.816 8.448 25.856 5.76 6.912 12.544 10.496 19.968 10.624s14.336-3.2 20.736-10.112C3581.568 694.4 3584.768 685.568 3584.768 674.816z"  horiz-adv-x="3840" />

    
    <glyph glyph-name="caution" unicode="&#58890;" d="M505.088 853.632c-262.144 0-474.624-212.48-474.624-474.624s212.48-474.624 474.624-474.624c262.08 0 474.56 212.48 474.56 474.624S767.104 853.632 505.088 853.632zM554.688 80.51199999999994L455.296 80.51199999999994l0 99.52 99.392 0L554.688 80.51199999999994zM554.688 279.48800000000006L455.296 279.48800000000006 455.296 677.44l99.392 0L554.688 279.48800000000006z"  horiz-adv-x="1024" />

    
    <glyph glyph-name="gift" unicode="&#58891;" d="M647.808 650.752C629.44 675.648 590.528 678.208 561.024 656.384 554.112 651.392 537.92 629.312 519.296 578.496 516.416 570.56 514.112 563.2 511.808 555.9680000000001c0.832-2.88 1.216-4.608 1.856-7.04 8.512 0 17.344 0.128 26.752 0.704C594.56 552.0640000000001 620.48 561.28 627.264 566.2719999999999 656.896 588.096 666.048 626.048 647.808 650.752zM438.016 656.384C408.448 678.208 369.472 675.648 351.168 650.752c-18.304-24.64-9.024-62.656 20.544-84.48 6.72-4.992 32.64-14.208 86.656-16.64 9.472-0.512 18.496-0.64 26.944-0.704 0.64 2.368 1.088 4.096 1.856 6.976C484.864 563.2 482.432 570.496 479.68 578.496 461.12 629.376 444.736 651.392 438.016 656.384zM504.32 886.656c-274.624 0-497.28-222.656-497.28-497.28s222.656-497.28 497.28-497.28c274.688 0 497.344 222.656 497.344 497.28S779.008 886.656 504.32 886.656zM405.248 44.86400000000003L251.392 44.86400000000003c-12.16 0-22.08 9.856-22.08 22.08L229.312 377.472l175.872 0 0.064 0L405.248 44.86400000000003zM405.248 411.968L213.952 411.968 213.952 511.488c0 12.224 9.92 22.016 22.016 22.016l169.216 0 0.064 0L405.248 411.968zM582.656 44.928L440.832 44.928 440.832 377.472l141.76 0L582.592 44.928zM582.656 411.968L440.832 411.968 440.832 532.352C398.72 534.2719999999999 350.272 540.608 325.504 558.848 276.096 595.264 260.8 658.3679999999999 291.392 699.84c30.4 41.472 95.232 45.632 144.512 9.152C463.296 688.832 485.184 637.376 499.456 595.2c14.272 42.112 36.032 93.568 63.424 113.792 49.472 36.48 114.176 32.32 144.64-9.152 30.592-41.472 15.232-104.576-33.984-140.992-21.888-16-61.888-22.656-99.904-25.344l9.024 0L582.656 411.968zM779.52 67.00800000000004c0-12.224-9.984-22.08-22.016-22.08L618.304 44.928 618.304 377.472l161.216 0L779.52 67.00800000000004zM794.752 411.968L618.304 411.968 618.304 533.504l154.624 0c12.032 0 21.824-9.792 21.824-22.016L794.752 411.968z"  horiz-adv-x="1024" />

    
    <glyph glyph-name="location" unicode="&#58892;" d="M512 704.192c-119.04 0-215.552-95.616-215.552-213.504C296.448 372.736 392.96 277.24800000000005 512 277.24800000000005c119.04 0 215.616 95.488 215.616 213.44C727.616 608.64 631.04 704.192 512 704.192zM512 348.352c-79.36 0-143.68 63.744-143.68 142.336S432.64 633.088 512 633.088c79.424 0 143.68-63.744 143.68-142.336S591.424 348.352 512 348.352zM512 882.112c-218.304 0-395.2-184.768-395.2-412.672 0-113.984 44.288-217.216 115.776-291.84L512-114.11199999999997l279.488 291.776c71.488 74.624 115.776 177.856 115.776 291.84C907.264 697.344 730.304 882.112 512 882.112zM727.616 241.60000000000002L512-7.488000000000056l-215.552 249.152c-144.96 141.504-142.784 320.512 0 462.592 133.632 132.928 296.128 131.648 431.168 0C871.232 564.288 873.408 384.192 727.616 241.60000000000002z"  horiz-adv-x="1024" />

    
    <glyph glyph-name="lock" unicode="&#58893;" d="M828.032 465.344l-72.128 0L755.904 633.088c0 140.48-114.176 254.72-254.656 254.72-140.48 0-254.784-114.24-254.784-254.72l0-167.744L174.4 465.344c-34.752 0-62.912-28.16-62.912-62.912l0-459.264c0-34.816 28.16-62.976 62.912-62.976l653.696 0c34.752 0 62.848 28.16 62.848 62.976L890.944 402.432C890.944 437.184 862.784 465.344 828.032 465.344zM536.576 160.832l0-100.288c0-4.48-3.712-8.256-8.256-8.256L474.24 52.28800000000001c-4.608 0-8.32 3.776-8.32 8.256l0 100.288c-25.408 12.992-43.008 39.04-43.008 69.568 0 43.2 35.072 78.336 78.272 78.336 43.264 0 78.336-35.136 78.336-78.336C579.584 199.87199999999996 561.984 173.82399999999996 536.576 160.832zM658.176 465.344L344.32 465.344 344.32 628.928c0 86.528 70.464 156.992 156.992 156.992 86.528 0 156.864-70.464 156.864-156.992L658.176 465.344z"  horiz-adv-x="1024" />

    
    <glyph glyph-name="more" unicode="&#58894;" d="M896.768 896l-768 0c-70.656 0-128-57.344-128-128l0-768c0-70.72 57.344-128 128-128l768 0c70.656 0 128 57.28 128 128L1024.768 768C1024.768 838.656 967.424 896 896.768 896zM721.728 378.88l-350.976-358.144-72.832 71.36L585.152 385.28 296.96 675.264l72.384 71.872 359.168-361.472L721.728 378.88z"  horiz-adv-x="1025" />

    
    <glyph glyph-name="money" unicode="&#58895;" d="M879.104 894.912l-274.496-466.56 216.256 0 0-103.104L568.896 325.24800000000005l0-142.08 252.032 0 0-104.384L568.896 78.78399999999999 568.896-128 439.232-128l0 206.848L177.92 78.84799999999996l0 104.384 261.312 0 0 142.08L177.92 325.312 177.92 428.416l222.912 0-271.872 466.56L275.2 894.976c126.976-231.744 204.16-378.688 231.552-440.768l2.624 0C518.656 479.744 544 531.264 585.408 608.832l155.456 286.144L879.104 894.976z"  horiz-adv-x="1024" />

    
    <glyph glyph-name="ok" unicode="&#58896;" d="M512 862.656C247.616 862.656 33.344 648.384 33.344 384c0-264.384 214.272-478.656 478.656-478.656S990.656 119.61599999999999 990.656 384C990.656 648.384 776.384 862.656 512 862.656zM461.568 139.77599999999995L210.176 393.536l78.592 77.888 172.352-173.952 312.128 309.376 77.888-78.656L461.568 139.77599999999995z"  horiz-adv-x="1024" />

    
    <glyph glyph-name="phone" unicode="&#58897;" d="M786.496 892.8L251.008 892.8c-25.088 0-45.44-20.352-45.44-45.504l0-55.424 0-21.76 0-715.136 0-50.624 0-83.648c0-25.152 20.352-45.504 45.44-45.504l78.016 0L496.64-124.79999999999995l44.288 0 167.552 0 78.016 0c25.152 0 45.504 20.352 45.504 45.504l0 107.008 0 27.264L832 770.112 832 815.296l0 32C832 872.448 811.648 892.8 786.496 892.8zM579.776 837.632c8.128 7.936 22.144 7.936 30.336 0C614.016 833.472 616.192 828.16 616.192 822.528c0-5.568-2.176-11.008-6.208-14.912C606.016 803.5840000000001 600.512 801.28 595.008 801.28c-5.696 0-11.328 2.304-15.232 6.144-3.84 4.032-6.144 9.536-6.144 15.104C573.632 828.16 575.936 833.664 579.776 837.632zM456.576 843.776l59.008 0c11.776 0 21.312-9.472 21.312-21.312 0-11.712-9.536-21.312-21.312-21.312L456.576 801.152c-11.712 0-21.248 9.6-21.248 21.312C435.328 834.304 444.864 843.776 456.576 843.776zM518.72-82.048c-27.2 0-49.216 22.08-49.216 49.344s22.016 49.344 49.216 49.344c27.264 0 49.28-22.08 49.28-49.344S545.984-82.048 518.72-82.048zM786.688 54.847999999999956L250.88 54.847999999999956 250.88 753.088l535.808 0L786.688 54.847999999999956z"  horiz-adv-x="1024" />

    
    <glyph glyph-name="que" unicode="&#58898;" d="M514.048 867.328c-269.504 0-488-218.496-488-488 0-269.504 218.496-488 488-488 269.504 0 488 218.496 488 488C1002.048 648.832 783.552 867.328 514.048 867.328zM578.176 51.903999999999996L453.952 51.903999999999996l0 124.224 124.224 0L578.176 51.903999999999996zM723.52 442.752c-15.488-24.448-48.704-57.728-99.392-99.968-26.24-21.76-42.56-39.168-48.896-52.48-6.272-13.248-9.152-36.992-8.64-71.168L453.952 219.13599999999997c-0.32 16.256-0.448 26.112-0.448 29.632 0 36.544 6.016 66.624 18.112 90.24 12.032 23.552 36.224 50.048 72.512 79.552C580.352 448 602.048 467.328 609.152 476.416 620.096 490.88 625.472 506.816 625.472 524.1600000000001c0 24.192-9.472 44.864-28.8 62.144C577.28 603.52 551.296 612.096 518.528 612.096c-31.552 0-57.92-9.024-79.168-26.944-21.184-17.984-35.84-45.376-43.776-82.304L281.472 517.056c3.264 52.736 25.664 97.536 67.456 134.4 41.664 36.864 96.448 55.296 164.224 55.296 71.296 0 128.064-18.688 170.24-55.936 42.176-37.312 63.232-80.704 63.232-130.24C746.624 493.184 738.88 467.264 723.52 442.752z"  horiz-adv-x="1024" />

    
    <glyph glyph-name="ren" unicode="&#58899;" d="M892.48 195.13599999999997l-242.624 69.568c-8.384 2.432-17.344 4.416-26.944 6.4 53.056 32.96 77.888 89.536 94.656 142.08 11.072 5.568 21.76 14.784 29.952 27.328 17.024 26.176 17.344 56.384 1.792 71.168 2.752 5.504 5.632 10.496 8.896 14.272 44.672 52.096 52.096 216 0 268.096-52.224 52.096-178.752 59.584-178.752 59.584s-70.464 29.824-134.08 0C360.96 814.016 303.872 801.472 274.176 786.624c-29.824-14.912-29.824-216 0-238.4C279.168 544.448 283.2 532.928 287.36 516.608 286.528 516.096 285.568 515.904 284.8 515.392c-19.84-12.928-20.8-46.528-2.304-74.88C291.2 427.136 302.784 417.344 314.624 412.032 332.224 358.4 360.256 302.20799999999997 411.648 269.88800000000003 406.336 268.79999999999995 401.216 267.52 396.416 266.24l-264.64-72.704c-69.824-19.2-126.848-111.232-126.848-204.736l0-87.808 1014.272 0 0 87.808C1019.136 82.30399999999997 962.112 175.10400000000004 892.48 195.13599999999997z"  horiz-adv-x="1024" />

    
    <glyph glyph-name="sign01" unicode="&#58900;" d="M354.496 323.77599999999995L259.584 127.55200000000002 277.824 111.80799999999999 457.088 236.03200000000004ZM512 884.864c-277.952 0-503.296-225.344-503.296-503.296 0-147.008 63.424-278.848 163.904-370.88L349.44 376.384l160.32-137.344L176 7.552000000000021c89.152-80.128 206.656-129.344 336-129.344 277.952 0 503.232 225.344 503.232 503.296C1015.232 659.52 789.952 884.864 512 884.864zM539.2 273.08799999999997L378.496 410.368l343.552 411.072 160.512-137.344L539.2 273.08799999999997zM168.576 2.4320000000000164l7.424 5.12c-1.152 1.088-2.304 2.112-3.456 3.136L168.576 2.4320000000000164z"  horiz-adv-x="1024" />

    
    <glyph glyph-name="vipicon" unicode="&#58901;" d="M982.016 564.0319999999999c-21.824 24.96-156.992 184.64-208.704 240.32-15.936 17.216-27.84 29.12-52.16 30.08-24.384 0.896-417.344 0-417.344 0-13.44 0-30.72-3.136-52.928-29.12C199.04 744.64 82.24 610.88 42.88 564.0319999999999c-26.688-30.912-30.08-74.88 0-120.128 64-74.56 240.32-276.8 417.408-480.64 25.152-28.992 40.96-30.08 52.16-30.08 10.944 0 26.496 0.512 52.16 30.08 175.36 201.92 343.744 394.944 417.344 480.64C1006.848 473.92 1011.52 528.448 982.016 564.0319999999999zM799.232 468.096c0-6.016-4.416-11.008-9.856-11.008-0.128 0-1.472 0-9.472 0-14.144 0-13.12-2.752-19.968-11.008-49.472-67.2-247.168-332.608-247.168-332.608-0.128 0.384-0.192 0.832-0.32 1.216 0-0.32 0-0.832 0-1.216 0 0-197.888 265.344-247.36 332.608C258.112 454.4 259.2 457.088 244.928 457.088c-8 0-9.408 0-9.536 0-5.504 0-9.92 4.928-9.92 11.008L225.472 522.944c0 6.08 4.48 11.008 9.92 11.008l98.944 0c5.44 0 13.248-0.768 19.776-11.008l158.336-222.656c0-0.256 0-0.64 0-0.896 0.128 0.256 0.192 0.64 0.32 0.768l158.08 222.848c6.528 10.176 14.4 11.008 19.84 11.008l98.816 0c5.44 0 9.856-4.928 9.728-11.072L799.232 468.096z"  horiz-adv-x="1024" />

    
    <glyph glyph-name="vipffb400" unicode="&#58902;" d="M982.016 564.0319999999999c-21.824 24.96-157.056 184.64-208.704 240.32-15.936 17.216-27.776 29.12-52.16 30.08-24.384 0.896-417.408 0-417.408 0-13.44 0-30.72-3.136-52.928-29.12C199.04 744.64 82.24 610.88 42.88 564.0319999999999c-26.688-30.912-30.08-74.88 0-120.128 64-74.56 240.32-276.8 417.408-480.64 25.152-28.992 40.96-30.08 52.16-30.08 10.944 0 26.496 0.512 52.16 30.08 175.36 201.92 343.744 394.944 417.344 480.64C1006.848 473.92 1011.52 528.448 982.016 564.0319999999999zM929.856 473.92c-58.816-68.544-235.52-264.896-375.488-426.624-20.48-23.616-32.896-24-41.6-24-8.896 0-21.504 0.896-41.6 24-141.312 163.2-324.992 366.976-376.064 426.624-14.272 14.592-13.952 39.104 0 60.096C126.464 571.52 236.16 696 277.632 744.256c30.784 35.904 57.792 30.08 68.544 30.08 0 0 313.536 0 333.056 0 40 0 49.472-8.832 67.968-30.08 39.936-45.952 165.312-190.272 182.656-210.24C945.216 512.0640000000001 940.608 491.328 929.856 473.92zM789.504 534.0160000000001l-98.816 0c-5.44 0-13.312-0.832-19.84-11.008L512.768 300.15999999999997C512.64 300.03200000000004 512.576 299.648 512.448 299.39200000000005c0 0.256 0 0.64 0 0.832L354.112 522.944c-6.528 10.24-14.336 11.008-19.776 11.008L235.392 533.952c-5.44 0-9.92-4.928-9.92-11.008l0-54.848c0-6.08 4.416-11.008 9.92-11.008 0.128 0 1.536 0 9.536 0 14.272 0 13.184-2.688 20.096-11.008 49.472-67.264 247.36-332.544 247.36-332.544 0 0.32 0 0.832 0 1.152 0.128-0.384 0.192-0.832 0.32-1.152 0 0 197.632 265.344 247.168 332.544 6.848 8.256 5.888 11.008 20.032 11.008 7.936 0 9.344 0 9.472 0 5.44 0 9.856 4.992 9.856 11.008L799.232 522.944C799.36 529.088 794.944 534.0160000000001 789.504 534.0160000000001z"  horiz-adv-x="1024" />

    
    <glyph glyph-name="youbian" unicode="&#58903;" d="M1010.816 739.968L1010.816 788.672l-64.512 0c-0.96-26.944-22.912-48.576-50.048-48.576-27.264 0-49.28 21.632-50.112 48.576l-53.76 0c-0.896-26.944-22.848-48.576-50.112-48.576-27.2 0-49.216 21.632-50.048 48.576l-53.76 0C637.568 761.7280000000001 615.488 740.096 588.352 740.096c-27.2 0-49.216 21.632-50.112 48.576L484.48 788.672C483.648 761.7280000000001 461.632 740.096 434.496 740.096c-27.136 0-49.216 21.632-50.112 48.576L330.624 788.672C329.664 761.7280000000001 307.712 740.096 280.512 740.096c-27.2 0-49.216 21.632-50.112 48.576l-53.76 0C175.808 761.7280000000001 153.792 740.096 126.592 740.096c-27.136 0-49.216 21.632-50.048 48.576l-63.36 0 0-48.576c27.776 0 50.24-22.528 50.24-50.176 0-27.84-22.464-50.24-50.24-50.24l0-43.072c27.776 0 50.24-22.464 50.24-50.24S40.896 496.064 13.12 496.064L13.12 453.12c27.776 0 50.24-22.464 50.24-50.24 0-27.712-22.464-50.24-50.24-50.24l0-43.008c27.776 0 50.24-22.528 50.24-50.24 0-27.712-22.464-50.24-50.24-50.24l0-42.944c27.776 0 50.24-22.592 50.24-50.24 0-27.904-22.464-50.368-50.24-50.368l0-55.424 63.232 0c0.064 27.776 22.528 50.24 50.24 50.24 27.84 0 50.304-22.528 50.304-50.24l53.376 0c0 27.776 22.464 50.24 50.304 50.24 27.776 0 50.176-22.528 50.24-50.24l53.44 0c0 27.776 22.528 50.24 50.24 50.24 27.648 0 50.24-22.528 50.304-50.24l53.376 0c0 27.776 22.464 50.24 50.24 50.24 27.712 0 50.176-22.528 50.176-50.24l53.376 0c0.192 27.776 22.656 50.24 50.304 50.24 27.776 0 50.176-22.528 50.368-50.24l53.312 0c0 27.776 22.592 50.24 50.304 50.24 27.648 0 50.176-22.528 50.176-50.24l64.384 0 0 55.616c-26.752 1.216-48.128 23.04-48.128 50.176 0 26.944 21.376 48.896 48.128 50.048l0 43.392c-26.752 1.088-48.128 22.976-48.128 49.984 0 27.072 21.376 48.96 48.128 50.048L1010.816 352.76800000000003c-26.752 1.152-48.128 23.04-48.128 50.112 0 27.072 21.376 48.896 48.128 50.048L1010.816 496.32c-26.752 1.088-48.128 22.976-48.128 50.048 0 27.008 21.376 48.896 48.128 50.048L1010.816 639.8720000000001c-26.752 1.088-48.128 22.912-48.128 50.048C962.688 716.928 984.064 738.752 1010.816 739.968zM883.456 137.47199999999998L140.544 137.47199999999998 140.544 661.248l742.912 0L883.456 137.47199999999998z"  horiz-adv-x="1024" />

    
    <glyph glyph-name="arrow1" unicode="&#58904;" d="M313.390545 896L186.042182 770.141091 598.760727 388.002909 201.774545-4.468363999999951 321.256727-127.76727300000005 837.771636 382.836364Z"  horiz-adv-x="1024" />

    
    <glyph glyph-name="share01" unicode="&#58905;" d="M806.016 416.576c-20.992 0-37.952-17.024-37.952-37.952l0-310.208L134.208 68.41600000000005 134.208 378.624c0 20.928-16.96 37.952-37.952 37.952-20.928 0-37.952-17.024-37.952-37.952l0-314.496c0-39.488 32.128-71.616 71.616-71.616l642.432 0c39.488 0 71.616 32.128 71.616 71.616L843.968 378.624C843.968 399.552 826.944 416.576 806.016 416.576zM998.976 599.744c-0.064 1.024-0.064 1.984-0.256 2.944-0.192 1.216-0.576 2.24-0.896 3.456-0.384 1.344-0.704 2.624-1.216 3.904-0.064 0.256-0.064 0.448-0.128 0.64-0.384 0.832-0.896 1.6-1.344 2.432-0.576 1.28-1.216 2.432-1.92 3.648-0.768 1.28-1.728 2.24-2.56 3.328-0.64 0.768-1.088 1.408-1.664 2.24L874.24 743.552c-12.8 13.504-33.152 15.552-48.192 5.824-1.92-1.28-3.776-2.624-5.44-4.288-15.232-14.4-15.936-38.464-1.536-53.632l32.384-34.24L851.2 656.512c-14.848 1.152-205.44 14.464-342.656-111.488C418.88 462.656 373.76 341.12 374.656 183.74400000000003c0.128-19.968 16.32-35.968 36.224-35.84 19.968 0.128 35.968 16.384 35.84 36.288C446.016 320.06399999999996 483.072 423.36 556.928 491.52c97.152 89.536 232.832 94.464 275.136 93.568l-0.384-1.408-39.168-16.192c-2.176-0.96-4.288-1.984-6.208-3.264-15.04-9.792-21.504-29.184-14.4-46.4 8.064-19.328 30.208-28.544 49.6-20.544l154.368 63.808c0.896 0.384 1.536 0.832 2.432 1.28 1.28 0.64 2.56 1.216 3.712 1.984 1.152 0.768 2.176 1.536 3.2 2.432 0.768 0.704 1.536 1.088 2.304 1.792 0.128 0.064 0.256 0.256 0.384 0.448 1.088 1.088 2.048 2.24 2.944 3.392 0.576 0.768 1.344 1.536 1.92 2.432 0.832 1.152 1.408 2.56 2.112 3.776 0.512 0.96 1.024 1.664 1.408 2.624 0.704 1.408 1.088 3.072 1.536 4.48 0.192 0.896 0.512 1.536 0.64 2.368 0.384 1.664 0.512 3.456 0.704 5.056 0 0.768 0.192 1.344 0.256 2.112C999.36 596.736 999.168 598.2719999999999 998.976 599.744z"  horiz-adv-x="1024" />

    
    <glyph glyph-name="cupon" unicode="&#58906;" d="M578.496-102.59199999999998l0 6.4c0 37.44-29.888 67.328-66.624 67.328-36.672 0-66.496-29.888-66.496-66.496l0-6.4-6.848-0.768L270.4-102.52800000000002 270.4-86.39999999999998C266.304-53.952 238.08-28.864000000000033 204.8-28.864000000000033c-36.672 0-66.496-29.888-66.496-66.496l0-6.4-6.4-0.448L81.728-102.20799999999997l0 972.8 860.224 0 0-963.712 1.28-7.424-1.152-0.192 0-1.024-6.4-0.384-50.176 0 0 6.4c-1.152 38.592-30.272 66.88-66.304 66.88s-65.152-28.288-66.24-64.448l-0.192-6.208-6.208-3.072L578.496-102.59199999999998zM706.752-46.01599999999996c19.712 44.864 63.296 73.6 112.384 73.6 23.616 0 46.336-6.784 66.368-19.968L885.504 814.08 138.304 814.08l0-806.528c20.032 13.184 42.816 20.032 66.496 20.032 49.024 0 92.672-28.736 112.384-73.6l82.24 0c19.712 44.864 63.36 73.6 112.384 73.6 49.088 0 92.736-28.736 112.512-73.6L706.752-46.01599999999996zM297.472 486.336L297.472 418.56 469.248 418.56 469.248 324.99199999999996 297.472 324.99199999999996 297.472 256.32000000000005 469.248 256.32000000000005 469.248 120.19200000000001 554.432 120.19200000000001 554.432 256.32000000000005 720.128 256.32000000000005 720.128 324.99199999999996 554.432 324.99199999999996 554.432 418.56 720.128 418.56 720.128 486.336 577.856 486.336 758.4 728 667.52 728 515.328 503.296 513.6 503.296 361.344 728 265.344 728 444.032 486.336Z"  horiz-adv-x="1024" />

    
    <glyph glyph-name="email" unicode="&#58907;" d="M25.6 691.2l0-665.6 947.2 0L972.8 691.2 25.6 691.2zM90.9312 627.7888l816.5376 0 0-40.7552-391.936-244.5056L90.9312 589.7728 90.9312 627.7888zM674.176 350.1056l233.2928 150.9376 0-352.1792L674.176 350.1056zM90.9312 501.0176l241.2544-144.0768-241.2544-208.1024L90.9312 501.0176zM392.6784 320.8192l122.8544-73.344 100.0704 64.7168 255.5648-223.2064L127.232 88.98559999999998 392.6784 320.8192z"  horiz-adv-x="1024" />

    
    <glyph glyph-name="accountwhite" unicode="&#58918;" d="M703.925916 221.82081700000003c-3.262776-3.134824-6.525553-6.333625-9.596401-9.660377C697.400363 215.35924 700.663139 218.68599300000005 703.925916 221.82081700000003zM1022.206561 140.315382c0 0-20.216419 98.842934-9.340497 122.066225 0 0 18.617019 43.503686-21.495939 80.097963 0 0-38.449581 41.136574-158.788454-24.118955 0 0-63.144321-34.483069-123.985505-91.997501 6.013745-2.55904 25.3345-1.087592 25.3345-1.087592 3.646633 0.63976 5.310009-1.215544 5.310009-1.215544 47.150319-33.907285 53.675872-63.784081 53.675872-63.784081 7.357241-20.088467-3.646633-29.620892-3.646633-29.620892-14.138698-9.660377-36.786205 3.070848-36.786205 3.070848-31.028364 13.370986-54.379608 55.14732-54.379608 55.14732-4.286393 7.741097-6.653505 14.010746-8.060977 18.936899-34.866925-36.530301-66.663001-80.289891-81.953268-129.743346 0 0-47.982007-120.146945 7.357241-171.967512 0 0 50.221167-54.571536 139.4677-25.3345 0 0 80.161939 13.882794 176.189929 116.436336-4.734225 5.182057-9.596401 10.939898-14.26665 16.761714-28.597276 37.106085-45.231038 52.460327-64.103961 74.21217l0-119.315257-56.234912 0 0 119.315257c-18.872923-21.751843-35.506685-37.106085-64.103961-74.21217-19.384731-24.886667-43.503686-45.231038-53.611896-45.231038L638.478459-31.26827400000002c43.951518 56.874672 55.723104 62.376609 99.674622 119.059353 4.158441 5.437961 8.764713 10.620017 13.115082 15.22629l-65.447457 0L618.326016 103.01736800000003 629.713745 127.00837200000001l79.586155 0L767.901925 127.00837200000001l28.597276 0 0 4.158441L796.499201 234.488067l56.234912 0 0-91.229789c9.980257 13.115082 18.233163 23.735099 35.954517 46.830439 13.243034 17.273522 31.348244 31.09234 40.624766 31.09234l35.826565 0c-29.940772-38.705485-32.563789-42.671998-62.440585-81.441459-3.646633-4.478321-7.357241-8.956641-11.38773-12.731226l63.656129 0 58.921904 0c0-13.115082-10.620017-23.735099-23.607147-23.735099l-92.189429 0c4.350369-4.734225 8.956641-9.916281 13.115082-15.354242 21.112083-27.381732 34.866925-42.927902 48.301887-57.898288 19.960515 24.566787 40.24091 52.588279 60.521305 85.791828C1020.031376 115.81257000000005 1026.812833 123.42571499999997 1022.206561 140.315382zM954.455967 23.815068999999994c-6.269649-7.421217-12.475322-14.522554-18.617019-21.304011C941.980645 9.356491000000005 948.186318 16.329876000000013 954.455967 23.815068999999994zM534.133588 320.215919c-158.724478 0-287.89204 129.167562-287.89204 287.89204S375.345134 896 534.133588 896s287.89204-129.167562 287.89204-287.89204S692.858066 320.215919 534.133588 320.215919zM534.133588 832.023991c-123.473697 0-223.916031-100.442334-223.916031-223.916031S410.659891 384.191928 534.133588 384.191928c123.409721 0 223.916031 100.442334 223.916031 223.916031S657.543309 832.023991 534.133588 832.023991zM64.165826-128L0.189817-128c0 279.959015 243.940522 507.841559 543.796076 507.841559l0-59.753592C279.38112 320.08796700000005 64.165826 119.01137100000005 64.165826-128z"  horiz-adv-x="1024" />

    
    <glyph glyph-name="downgrey" unicode="&#58921;" d="M183.862388 114.41493300000002l305.9712-235.451733c0.750933-0.682667 1.8432-0.8192 2.730667-1.365333 2.048-1.365333 4.164267-2.321067 6.3488-3.208533 2.116267-0.8192 4.096-1.4336 6.212267-1.8432C507.514655-127.86346700000001 509.630921-128 511.951988-128c2.2528 0 4.437333 0.136533 6.7584 0.546133 2.116267 0.4096 4.164267 1.092267 6.212267 1.8432 2.184533 0.887467 4.3008 1.8432 6.417067 3.208533 0.8192 0.546133 1.911467 0.682667 2.6624 1.365333l305.902933 235.451733c15.36 11.8784 17.885867 33.314133 5.7344 48.128-7.099733 8.533333-17.408 12.9024-27.716267 12.9024-7.7824 0-15.496533-2.389333-22.1184-7.441067l-248.354133-191.214933L547.450655 861.661867C547.314121 880.64 531.476255 896 511.951988 896 492.359455 896 476.521588 880.64 476.521588 861.661867l0-884.804267-248.354133 191.2832c-6.621867 4.983467-14.404267 7.441067-22.1184 7.441067-10.308267 0-20.6848-4.437333-27.716267-12.970667C166.044788 147.79733299999998 168.707188 126.29333299999996 183.862388 114.41493300000002z"  horiz-adv-x="1024" />

    
    <glyph glyph-name="qishi01" unicode="&#58923;" d="M512 867.584c-267.4688 0-484.2496-216.832-484.2496-484.2496 0-267.4176 216.832-484.2496 484.2496-484.2496 267.4176 0 484.3008 216.832 484.3008 484.2496C996.3008 650.752 779.4176 867.584 512 867.584zM455.5264 650.9056C470.3232 666.112 490.7008 674.6623999999999 511.7952 674.3552c21.1968 0.2048 41.7792-8.2432 56.5248-23.4496 15.0016-14.7968 23.296-35.1232 23.0912-56.1152 0.2048-21.1968-8.2944-41.5744-23.3984-56.2176-14.6944-14.6944-34.7136-23.04-55.3984-23.04L511.7952 515.5328c-20.992-0.2048-41.3696 8.1408-56.064 23.1424C440.6784 553.3184 432.3328 573.696 432.5376 594.7904 432.3328 615.7824 440.6784 636.1088 455.5264 650.9056zM627.6096 127.84640000000002l0-13.4144 0-22.2208L396.288 92.21119999999996l0 57.1392 21.6064 0.768c10.24 0.4608 14.592 2.7136 16.9984 4.7616l1.2288 5.4272c0.9728 5.5808 1.6384 14.4384 1.5872 25.9072L437.7088 388.096c0.256 17.7664-2.3552 29.9008-3.4816 32.5632l0 0L431.616 421.9392C428.8512 422.912 423.936 423.936 417.1776 424.3456L396.288 425.6256 396.288 482.5088l189.4912 0 0-296.2944c-0.3072-17.7152 2.4064-29.7984 3.4304-32.5632l0.0512 0 2.7136-1.1776c2.816-0.9728 7.7824-1.9968 14.6944-2.3552l20.8896-1.28L627.5584 127.84640000000002z"  horiz-adv-x="1024" />

    
    <glyph glyph-name="iconfont101" unicode="&#58924;" d="M900.8 671.488L562.624 266.75199999999995 404.48 401.984l338.048 404.736L900.8 671.488zM375.808 368.51199999999994l157.952-135.168-336-232.96L375.808 368.51199999999994zM380.8 316.60799999999995l-93.44-193.216 17.984-15.488 176.384 122.432L380.8 316.60799999999995zM512-115.00800000000004c-271.488 0-492.352 220.928-492.352 492.352 0 271.488 220.864 492.352 492.352 492.352s492.352-220.864 492.352-492.352C1004.352 105.91999999999996 783.488-115.00800000000004 512-115.00800000000004zM512 845.568c-258.176 0-468.224-210.048-468.224-468.288 0-258.176 210.112-468.224 468.224-468.224 258.24 0 468.288 210.048 468.288 468.224C980.288 635.52 770.24 845.568 512 845.568z"  horiz-adv-x="1024" />

    
    <glyph glyph-name="iconfont201" unicode="&#58928;" d="M512-115.00800000000004c-271.488 0-492.352 220.928-492.352 492.352 0 271.424 220.864 492.288 492.352 492.288 271.424 0 492.224-220.864 492.224-492.288C1004.224 105.91999999999996 783.488-115.00800000000004 512-115.00800000000004zM512 845.568c-258.176 0-468.224-210.048-468.224-468.224 0-258.24 210.048-468.224 468.224-468.224s468.224 209.984 468.224 468.224C980.224 635.52 770.24 845.568 512 845.568zM441.6 395.2l157.184 0 0-368-157.184 0 0 368ZM402.112 395.2L207.424 395.2l0-343.68c0-13.504 10.944-24.384 24.448-24.384l170.24 0L402.112 395.2zM638.272 395.2l0-368 153.92 0c13.44 0 24.448 10.88 24.448 24.32l0 343.68L638.272 395.2zM402.112 568.1279999999999L214.848 568.1279999999999c-13.44 0-24.448-10.944-24.448-24.32l0-110.144 211.776 0L402.112 568.1279999999999 402.112 568.1279999999999zM441.6 568.1279999999999l157.184 0 0-134.528-157.184 0 0 134.528ZM809.28 568.1279999999999L638.272 568.1279999999999l0-134.528 195.392 0L833.664 543.808C833.6 557.184 822.72 568.1279999999999 809.28 568.1279999999999zM737.152 752.1279999999999c-33.856 45.888-105.536 50.432-160.256 10.24C522.304 722.1759999999999 486.336 567.616 486.336 567.616s158.144-11.712 212.928 28.544C753.856 636.48 770.816 706.304 737.152 752.1279999999999zM552 585.9200000000001C539.904 585.344 528.128 585.088 517.504 585.088c3.2 10.048 6.784 21.312 10.944 32.704 20.544 56.384 38.656 80.768 46.208 86.336 32.768 24.064 75.968 21.376 96.256-6.144 20.032-27.52 9.856-69.504-22.784-93.568C640.576 598.848 611.968 588.672 552 585.9200000000001zM313.856 596.096c54.656-40.192 212.992-28.544 212.992-28.544S490.944 722.1759999999999 436.288 762.3679999999999C381.568 802.56 309.952 798.016 276.096 752.1279999999999 242.368 706.304 259.264 636.48 313.856 596.096zM365.056 604.352C332.288 628.4159999999999 322.112 670.4 342.4 697.92c20.224 27.52 63.36 30.272 96.128 6.144 7.488-5.568 25.664-29.952 46.144-86.336 4.16-11.328 7.808-22.656 10.944-32.704-10.624 0-22.336 0.256-34.56 0.832C401.28 588.672 372.544 598.848 365.056 604.352z"  horiz-adv-x="1024" />

    
    <glyph glyph-name="pushnotifysetting" unicode="&#58932;" d="M1195.604396 895.936064l-1163.636364 0.063936c-8.503497 0-16.687313-3.324675-22.633367-9.334665C3.388611 880.655345 0 872.535465 0 864.031968l0-733.218781c0-71.608392 59.78022-129.918082 133.178821-129.918082l470.569431 0c17.646354 0 31.968032 14.44955 31.968032 31.968032 0 17.646354-14.321678 31.968032-31.968032 31.968032l-470.569431 0c-38.16983 0-69.242757 29.602398-69.242757 65.982018L63.936064 663.208791l292.37962-161.566434L158.625375 247.94405600000005c-10.805195-13.938062-8.375624-34.013986 5.562438-44.883117 5.882118-4.475524 12.787213-6.649351 19.628372-6.649351 9.526474 0 18.925075 4.21978 25.254745 12.211788L411.428571 468.267732C411.94006 468.971029 412.067932 469.802198 412.579421 470.569431l134.905095-74.549451c4.859141-2.685315 10.165834-3.964036 15.408591-3.964036 11.316683 0 22.185814 5.946054 28.067932 16.559441 8.567433 15.408591 2.941059 34.909091-12.531469 43.412587L63.936064 736.287712 63.936064 832.063936l1099.7003-0.063936L1163.636364 703.168831c0-17.646354 14.321678-31.968032 31.968032-31.968032 17.582418 0 31.968032 14.321678 31.968032 31.968032L1227.572428 863.968032C1227.572428 881.614386 1213.250749 895.936064 1195.604396 895.936064zM1398.217782 169.04695300000003l-89.318681 52.683317c1.598402 11.124875 2.237762 22.377622 2.237762 33.63037 0 9.782218-0.511489 20.011988-1.726274 30.305694l89.766234 53.578422c6.713287 3.964036 9.462537 12.33966 6.649351 19.82018L1368.551449 450.10989c-3.132867 7.224775-11.124875 11.380619-18.989011 9.334665l-99.868132-26.14985c-13.554446 17.326673-29.282717 33.054945-46.481518 46.993007l26.597403 99.868132c1.726274 8.055944-1.79021 15.984016-9.334665 19.052947l-90.853147 38.041958c-7.288711 3.260739-15.92008 0.31968-19.948052-6.649351l-52.811189-89.318681c-21.098901 2.877123-43.220779 2.877123-64.703297 0.511489l-52.683317 89.638362C935.576424 638.273726 927.392607 641.150849 919.912088 638.145854L828.803197 600.871129c-7.288711-3.004995-11.7003-11.188811-9.334665-18.925075l26.213786-99.932068c-17.390609-13.81019-33.310689-29.410589-47.056943-46.929071L698.501499 462.321678c-7.480519 2.10989-15.6004-1.982018-18.861139-9.270729l-37.722278-90.725275c-3.388611-7.480519-0.511489-16.047952 6.521479-20.011988l89.254745-51.404595C736.223776 279.592408 735.584416 267.70029999999997 735.584416 255.61638400000004c0-9.846154 0.639361-20.331668 1.342657-30.497502l-89.446553-53.194805c-6.713287-3.964036-9.59041-12.147852-6.649351-19.948052l37.338661-90.853147c3.068931-7.480519 11.124875-11.764236 18.861139-9.334665l99.356643 26.725275c13.490509-17.070929 28.707293-32.607393 45.65035-46.545455l-25.382617-101.53047c-1.726274-7.608392 2.045954-15.344655 9.334665-18.669331l90.981019-37.786214c7.096903-3.196803 15.472527-0.703297 19.948052 6.457542l53.322677 89.254745c21.226773-2.877123 42.581419-2.877123 63.424575-0.639361l53.578422-89.254745C1109.866134-125.12287700000002 1115.300699-128 1120.543457-128c2.237762 0 3.964036 0.511489 6.137862 1.150849l91.044955 37.210789c7.224775 2.877123 11.508492 11.124875 9.334665 18.989011l-26.213786 100.123876c17.326673 13.362637 32.607393 28.387612 46.28971 45.138861l101.082917-25.51049c7.8002-2.10989 15.472527 1.918082 18.669331 9.334665l37.914086 90.725275C1408.063936 156.387612 1405.186813 165.01898100000005 1398.217782 169.04695300000003zM1091.196803 187.78021999999999C1073.230769 169.68631400000004 1048.871129 159.77622399999996 1023.296703 159.77622399999996c-25.446553 0-49.806194 9.91009-67.836164 28.003996-37.466533 37.594406-37.466533 98.141858 0 135.736264C973.490509 341.67432599999995 997.722278 351.52048 1023.232767 351.52048c25.638362 0 49.87013-9.846154 67.9001-28.003996C1109.226773 305.166833 1119.136863 281.19080899999994 1119.136863 255.61638400000004 1119.136863 230.16983000000005 1109.354645 205.81019000000003 1091.196803 187.78021999999999z"  horiz-adv-x="1407" />

    
    <glyph glyph-name="question" unicode="&#58933;" d="M514.048 867.328c-269.504 0-488-218.496-488-488s218.496-488 488-488 488 218.496 488 488-218.496 488-488 488z m64.128-815.424H453.952V176.12800000000004h124.224v-124.224zM723.52 442.752c-15.488-24.448-48.704-57.728-99.392-99.968-26.24-21.76-42.56-39.168-48.896-52.48-6.272-13.248-9.152-36.992-8.64-71.168h-112.64c-0.32 16.256-0.448 26.112-0.448 29.632 0 36.544 6.016 66.624 18.112 90.24 12.032 23.552 36.224 50.048 72.512 79.552 36.224 29.44 57.92 48.768 65.024 57.856 10.944 14.464 16.32 30.4 16.32 47.744 0 24.192-9.472 44.864-28.8 62.144-19.392 17.216-45.44 25.792-78.144 25.792-31.552 0-57.92-9.024-79.168-26.944-21.184-17.984-35.84-45.376-43.776-82.304l-114.112 14.208c3.264 52.736 25.664 97.536 67.456 134.4 41.664 36.864 96.448 55.296 164.224 55.296 71.296 0 128.064-18.688 170.24-55.936 42.176-37.312 63.232-80.704 63.232-130.24 0-27.392-7.744-53.312-23.104-77.824z"  horiz-adv-x="1024" />

    
    <glyph glyph-name="uparrow" unicode="&#58934;" d="M839.914808 653.601227L533.964005 889.037264c-0.750883 0.682621-1.843077 0.819145-2.730485 1.365242-2.047863 1.365242-4.163989 2.320912-6.348377 3.208319-2.116126 0.819145-4.095727 1.433504-6.211853 1.843077C516.352379 895.863476 514.167991 896 511.915342 896c-2.25265 0-4.437038-0.136524-6.757949-0.546097C503.109529 895.04433 501.061665 894.429971 499.013802 893.610826 496.761152 892.723418 494.645026 891.699487 492.597163 890.402506c-0.819145-0.546097-1.911339-0.682621-2.662223-1.365242L184.052399 653.601227C168.693423 641.723618 166.167725 620.289314 178.318381 605.476435 185.349379 596.94367 195.725221 592.574895 206.0328 592.574895c7.781881 0 15.4955 2.389174 22.116926 7.440571l248.337577 191.202187 0-884.813546c0-18.976868 15.836811-34.335844 35.428038-34.335844 19.591227 0 35.428038 15.358976 35.428038 34.335844L547.34338 791.217652l248.269315-191.270449c6.621425-4.983134 14.403306-7.440571 22.116926-7.440571 10.307579 0 20.683421 4.437038 27.714419 12.969802C857.73122 620.221052 855.068998 641.723618 839.914808 653.601227z"  horiz-adv-x="1024" />

    
    <glyph glyph-name="dianjinjihua1" unicode="&#58935;" d="M512 38.55359999999996c-202.8032 0-367.8208 165.0176-367.8208 367.8208 0 202.8032 165.0176 367.8208 367.8208 367.8208 202.8032 0 367.8208-165.0176 367.8208-367.8208C879.8208 203.57119999999998 714.8032 38.55359999999996 512 38.55359999999996zM512 722.9952000000001c-174.592 0-316.6208-142.0288-316.6208-316.6208S337.408 89.7536 512 89.7536s316.6208 142.0288 316.6208 316.6208S686.592 722.9952000000001 512 722.9952000000001zM374.9376 510.6688L374.9376 558.9504c45.5168 4.4032 77.2096 11.8272 95.1808 22.2208S501.504 616.1408 510.4128 654.848l49.7152 0 0-499.0976L492.9024 155.7504 492.9024 510.6688 374.9376 510.6688z"  horiz-adv-x="1024" />

    
    <glyph glyph-name="dianjinjihua3" unicode="&#58936;" d="M512 774.1952c-202.8032 0-367.8208-165.0176-367.8208-367.8208 0-202.8032 165.0176-367.8208 367.8208-367.8208 202.8032 0 367.8208 165.0176 367.8208 367.8208C879.8208 609.1776 714.8032 774.1952 512 774.1952zM512 89.7536c-174.592 0-316.6208 142.0288-316.6208 316.6208S337.408 722.9952000000001 512 722.9952000000001s316.6208-142.0288 316.6208-316.6208S686.592 89.7536 512 89.7536zM568.0128 416.768L559.616 419.2256l7.3728 2.816c52.736 20.992 79.104 57.6 79.104 109.8752 0 77.9264-46.336 116.8896-138.9568 116.8896-38.0416 0-69.8368-8.9088-95.3856-26.7776S370.8416 580.1984 365.7216 550.0928L364.6464 544.512l66.8672 0c9.1136 36.864 33.5872 55.296 73.5232 55.296 48.5376 0 72.8064-23.9104 72.8064-71.7312 0-53.1968-31.3856-82.3808-94.1568-87.5008l-6.656-0.3584 0-56.3712 5.2736 0c71.6288 0 107.4688-29.8496 107.4688-89.6 0-60.672-28.928-90.9824-86.784-90.9824-41.5232 0-67.5328 15.616-78.0288 46.8992l-1.7408 5.5808L355.8912 255.74400000000003c20.2752-67.8912 68.0448-101.8368 143.1552-101.8368 49.4592 0 88.32 12.8 116.5312 38.3488s42.3424 60.8256 42.3424 105.8816C657.9712 361.77919999999995 627.968 401.3568 568.0128 416.768z"  horiz-adv-x="1024" />

    
    <glyph glyph-name="dianjinjihua5" unicode="&#58937;" d="M512 780.6464c-202.8032 0-367.8208-165.0176-367.8208-367.8208 0-202.8032 165.0176-367.8208 367.8208-367.8208s367.8208 165.0176 367.8208 367.8208C879.8208 615.6288 714.8032 780.6464 512 780.6464zM512 96.20479999999998c-174.5408 0-316.6208 142.0288-316.6208 316.6208S337.4592 729.4464 512 729.4464c174.592 0 316.6208-142.0288 316.6208-316.6208S686.592 96.20479999999998 512 96.20479999999998zM634.6752 643.7888l0-54.784L457.4208 589.0047999999999 440.1152 447.8976c30.5664 25.4464 61.44 38.1952 92.672 38.1952 38.0928 0 67.84-12.7488 89.344-38.1952 21.4528-25.4976 32.2048-60.7744 32.2048-105.9328 0-106.7008-50.7904-160.0512-152.4224-160.0512-74.3936 0-118.1696 30.7712-131.1744 92.3136l-1.024 4.9664L433.152 279.19359999999995l1.6384-3.9936c10.8544-31.232 34.4064-46.848 70.7584-46.848 56.4736 0 84.6336 34.6624 84.6336 103.936 0 68.608-27.1872 102.9632-81.7152 102.9632-28.3136 0-48.5888-8.96-60.7744-26.88L445.0816 404.6848 384 404.3776l26.2144 239.4112L634.6752 643.7888z"  horiz-adv-x="1024" />

    
    <glyph glyph-name="foot" unicode="&#58938;" d="M687.006979 810.170524c-15.48791-16.319905-36.127789-16.799902-51.167701-6.399963-23.167865 16.127906-25.63185 81.407525-2.079988 89.311479C682.719004 909.497945 697.950915 853.210273 687.006979 810.170524zM740.190668 888.826065c44.255742 12.159929 43.935744-70.047591 8.57595-70.20759C717.118803 818.554475 709.02285 880.218116 740.190668 888.826065zM531.519886 869.690177c76.319555 16.735902 82.655518-128.671249 6.399963-112.671342C503.040052 764.314792 482.720171 859.002239 531.519886 869.690177zM793.470357 871.802165c53.887685 7.455956 40.575763-67.487606 10.655938-70.143591C770.078494 798.618592 778.814443 855.194262 793.470357 871.802165zM855.229997 833.562388c17.375899-16.031906 13.183923-70.047591-17.023901-63.807628C818.078214 773.914736 814.910232 842.586335 855.229997 833.562388zM678.431029 771.898748c28.799832 4.895971 91.967463 0.767996 115.039329-6.399963 24.159859-7.487956 53.215689-34.719797 63.871627-53.11969 31.615815-54.687681 22.655868-198.078844 17.023901-272.190411-6.78396-89.375478-8.479951-207.486789-53.247689-246.622561-20.799879-18.367893-69.919592-36.191789-110.687354-23.423863-47.199725 14.687914-79.615535 77.18355-70.30359 142.431169 6.047965 42.079754 29.311829 73.215573 31.967813 97.823429 4.607973 42.527752-14.367916 86.015498-31.967813 123.32728-18.527892 39.39177-46.751727 71.711581-53.18369 99.935417C569.759663 708.859116 620.831365 762.042805 678.431029 771.898748zM391.008706 616.6676540000001c39.839767-33.055807-3.583979-128.991247-53.215689-85.023504-4.447974 16.095906-1.119993 39.999767-2.175987 59.519653C345.600971 608.155703 359.55289 621.1476279999999 391.008706 616.6676540000001zM288.801303 612.379679c22.367869-16.031906 16.351905-65.407618-8.54395-70.143591C237.377603 534.076136 233.953623 626.395597 288.801303 612.379679zM229.185651 595.387778c14.431916-17.2159 25.279852-69.023597-6.399963-70.20759C189.249884 523.996195 176.12996 602.7797350000001 229.185651 595.387778zM469.792246 593.2757899999999c72.287578 18.751891 56.127672-103.263397 17.023901-112.703342C414.848567 463.16455 418.464546 579.931868 469.792246 593.2757899999999zM186.593899 557.116001c10.623938-13.471921 17.2159-45.215736 6.399963-61.66364C152.514098 473.980487 142.050159 566.7479450000001 186.593899 557.116001zM144.002148 212.638012c0 43.327747 0 86.431496 0 129.759243 5.023971 39.199771 7.007959 66.111614 21.311876 91.423466 12.703926 22.591868 39.615769 48.03172 63.903627 55.263677 14.047918 4.223975 36.287788 3.807978 55.359677 6.399963 93.215456 12.639926 172.510993-44.383741 153.311105-133.983218-7.807954-36.479787-36.991784-65.535618-53.247689-99.903417-17.1839-36.447787-35.93579-81.631524-34.079801-119.199304 2.047988-42.111754 33.055807-79.871534 34.079801-125.375268 1.215993-54.623681-27.903837-113.247339-74.527565-125.439268-40.671763-10.687938-84.479507 4.383974-106.463379 23.359864C145.858137-35.13654199999996 158.178065 131.006488 144.002148 212.638012z"  horiz-adv-x="1024" />

    
    <glyph glyph-name="prize" unicode="&#58939;" d="M967.10371 596.8402960000001L967.10371 777.102222c0 16.156444-13.539556 29.240889-30.302815 29.240889l-76.382815 0L860.418081 866.759111C860.456006 882.915556 846.878525 896 830.153192 896L193.869932 896C177.144599 896 163.567118 882.915556 163.567118 866.759111l0-60.416L87.222229 806.343111c-16.725333 0-30.302815-13.12237-30.302815-29.240889l0-180.261926c-0.075852-1.782519-1.099852-61.060741 40.846222-102.627556 17.59763-17.408 39.708444-28.86163 65.801481-34.436741l0-55.940741c0-2.313481 3.147852-196.494222 221.601185-253.003852l-32.654222-105.28237c-58.519704-8.305778-141.729185-45.131852-141.729185-144.308148C210.784895-114.91555600000004 224.324451-128 241.049784-128l545.374815 0c16.725333 0 30.340741 13.084444 30.340741 29.240889 0 100.655407-85.788444 137.102222-144.952889 144.611556l-30.606222 105.623704c216.101926 57.268148 219.211852 250.04563 219.211852 252.321185l0 55.940741c26.130963 5.575111 48.203852 17.028741 65.801481 34.436741C968.203562 535.779556 967.179562 595.057778 967.10371 596.8402960000001zM141.190821 535.0968889999999C117.221636 558.762667 117.525044 595.740444 117.525044 596.119704L117.562969 747.899259l46.042074 0 0-226.872889C154.844155 524.325926 147.296895 528.990815 141.190821 535.0968889999999zM648.374229-10.998518999999987c0.037926 0 0.075852 0 0.113778 0l2.806519 0c9.291852-0.303407 80.933926-4.361481 100.16237-58.55763L276.09334-69.55614800000001c19.190519 54.196148 90.718815 58.254222 99.214222 58.55763l0.341333 0L511.992599-10.998518999999987 648.374229-10.998518999999987zM416.38134 47.483258999999975l28.596148 92.084148c18.773333-2.275556 38.798222-3.602963 60.188444-3.982222 0.83437-0.037926 1.630815-0.075852 2.465185-0.075852l8.798815 0c0.796444 0 1.630815 0.037926 2.389333 0.075852 22.414222 0.417185 43.235556 1.972148 62.767407 4.437333l26.81363-92.501333-92.880593 0L416.38134 47.521184999999946zM799.850377 403.986963c-0.075852-8.533333-5.233778-207.947852-287.819852-209.995852-26.396444 0.18963-50.327704 2.123852-72.097185 5.385481-2.199704 1.289481-4.475259 2.427259-7.092148 3.185778-4.740741 1.365333-9.481481 1.441185-14.032593 0.682667-190.615704 39.556741-194.56 193.34637-194.635852 200.628148L224.172747 837.518222 799.850377 837.518222 799.850377 403.986963zM882.870229 535.0968889999999c-6.144-6.106074-13.691259-10.770963-22.452148-14.108444L860.418081 747.899259l46.08 0 0-151.779556C906.498081 595.740444 906.801488 558.762667 882.870229 535.0968889999999zM412.626673 501.646222l-16.763259-94.359704c-1.441185-8.229926 2.048-16.535704 9.02637-21.428148 7.016296-4.892444 16.270222-5.537185 23.931259-1.668741l87.798519 44.600889 87.722667-44.600889c3.375407-1.706667 6.97837-2.541037 10.619259-2.541037 4.664889 0 9.367704 1.441185 13.349926 4.209778 7.016296 4.93037 10.467556 13.236148 9.02637 21.428148l-16.725333 94.359704 70.997333 66.901333c6.181926 5.802667 8.457481 14.563556 5.726815 22.490074-2.616889 7.926519-9.784889 13.729185-18.318222 14.942815l-98.152296 13.767111-43.880296 85.864296c-3.868444 7.471407-11.757037 12.212148-20.366222 12.212148s-16.57363-4.740741-20.366222-12.212148l-43.918222-85.864296L354.144895 605.942519C345.573636 604.728889 338.519414 598.926222 335.788747 590.9997040000001c-2.654815-7.926519-0.455111-16.649481 5.764741-22.490074L412.626673 501.646222zM470.691266 577.915259c7.35763 1.024 13.767111 5.537185 17.104593 11.984593l28.823704 56.32 28.823704-56.32c3.26163-6.485333 9.709037-10.960593 17.104593-11.984593l64.398222-9.02637-46.610963-43.84237c-5.385481-5.044148-7.812741-12.288-6.561185-19.418074l10.998519-62.008889-57.647407 29.278815c-6.599111 3.375407-14.52563 3.375407-21.162667 0l-57.609481-29.278815 10.960593 61.970963c1.289481 7.130074-1.137778 14.411852-6.523259 19.456L406.293044 568.8888890000001 470.691266 577.915259z"  horiz-adv-x="1024" />

    
    <glyph glyph-name="paper01" unicode="&#58941;" d="M587.3152 550.7072000000001L368.64 550.7072000000001c-12.8 0-23.1936 10.3424-23.1936 23.1936 0 12.8 10.3424 23.1936 23.1936 23.1936l218.6752 0L587.3152 651.1616 324.7104 651.1616l0-520.704 397.9776 0L722.688 529.2544l-135.424 0L587.264 550.7072000000001zM528.0768 187.59680000000003L368.64 187.59680000000003c-12.8 0-23.1936 10.3424-23.1936 23.2448 0 12.8 10.3424 23.0912 23.1936 23.0912l159.4368 0c12.8 0 23.2448-10.2912 23.2448-23.0912C551.3216 197.93920000000003 540.8768 187.59680000000003 528.0768 187.59680000000003zM678.8608 278.37440000000004L368.64 278.37440000000004c-12.8 0-23.1936 10.4448-23.1936 23.1936 0 12.8512 10.3424 23.1936 23.1936 23.1936l310.2208 0c12.8 0 23.0912-10.3936 23.0912-23.1936C701.952 288.8192 691.6608 278.37440000000004 678.8608 278.37440000000004zM678.8608 369.20320000000004L368.64 369.20320000000004c-12.8 0-23.1936 10.3424-23.1936 23.1936 0 12.8 10.3424 23.1936 23.1936 23.1936l310.2208 0c12.8 0 23.0912-10.3936 23.0912-23.1936C701.952 379.59680000000003 691.6608 369.20320000000004 678.8608 369.20320000000004zM678.8608 506.3168c12.8 0 23.0912-10.3936 23.0912-23.1936s-10.2912-23.1936-23.0912-23.1936L368.64 459.9296c-12.8 0-23.1936 10.3424-23.1936 23.1936 0 12.7488 10.3936 23.1936 23.1936 23.1936L678.8608 506.3168zM523.7248 882.6368c-275.4048 0-498.6368-223.232-498.6368-498.5856 0-275.3536 223.232-498.6368 498.6368-498.6368 275.3536 0 498.5856 223.2832 498.5856 498.6368C1022.3104 659.4048 799.0784 882.6368 523.7248 882.6368zM769.0752 118.88639999999998c0-19.0976-15.5648-34.7136-34.8672-34.7136L313.088 84.17280000000005c-19.2 0-34.7648 15.616-34.7648 34.7136L278.3232 662.784c0 19.1488 15.5648 34.7648 34.7648 34.7648l294.5536 0 161.4336-161.536L769.0752 118.88639999999998z"  horiz-adv-x="1024" />

    
    <glyph glyph-name="chujia01" unicode="&#58944;" d="M486.144 434.8416l110.4896 116.2752 10.0864-5.9392c5.4272-3.1744 12.8-2.2016 17.1008 2.3552l4.6592 4.7104c2.4576 2.7648 3.84 6.3488 3.7888 10.0352-0.2048 3.7376-1.6896 7.2192-4.352 9.8304L465.3056 726.6816C459.8272 731.904 450.56 731.648 445.3376 726.1696L440.8832 721.5104c-4.5056-4.7616-5.0688-11.8784-1.4336-17.408l6.6048-9.7792L201.3696 436.8384 191.1808 442.88C185.7536 446.1056 178.2272 445.0816 173.8752 440.5248L169.472 435.7632c-5.3248-5.5808-5.12-14.4896 0.512-19.8656l162.7648-154.5728c5.4784-5.2736 14.6944-4.9664 19.8656 0.512l4.4032 4.6592c4.4544 4.8128 5.12 11.9808 1.4848 17.408l-6.4512 9.728 110.336 116.224 289.8432-272.2816c5.5296-5.3248 14.7456-4.9664 19.8656 0.512l4.5056 4.7616c2.56 2.7136 3.84 6.2976 3.7376 9.984-0.0512 3.6864-1.5872 7.2192-4.1984 9.728L486.144 434.8416zM507.8528 874.8032c-271.0016 0-490.752-219.7504-490.752-490.8032s219.7504-490.8032 490.752-490.8032c271.104 0 490.8032 219.7504 490.8032 490.8032S778.9568 874.8032 507.8528 874.8032zM797.952 122.36800000000005l-4.608-4.7104c-8.0896-8.4992-19.5584-13.5168-31.4368-13.5168-11.264 0-21.9136 4.3008-30.0032 11.9808l-268.288 252.2112-75.3152-79.2576c4.6592-14.7456 1.1264-31.1296-10.0352-42.8544l-4.4544-4.7616c-15.9232-16.6912-44.8-17.408-61.4912-1.4336L149.6064 394.6496C132.2496 411.1872 131.5328 438.784 148.0192 456.1408L152.5248 460.8c10.6496 11.2128 27.4432 15.9744 42.3424 12.1344L409.6 698.8288c-4.6592 14.7968-1.1776 31.232 9.984 42.9568L424.0896 746.496c15.9744 16.6912 44.7488 17.408 61.4912 1.5872l162.6624-154.6752c8.3456-7.9872 13.1072-18.7904 13.5168-30.4128 0.3584-11.5712-3.8912-22.6304-11.8784-31.0784l-4.4544-4.6592c-10.6496-11.1616-27.392-15.872-42.24-12.1344l-75.264-79.104 268.3392-252.0576c8.5504-7.9872 13.312-18.7904 13.6192-30.464C810.1888 141.87519999999995 805.9904 130.91840000000002 797.952 122.36800000000005z"  horiz-adv-x="1024" />

    
    <glyph glyph-name="feidie01" unicode="&#58945;" d="M254.2592 158.0032l0-57.2928 441.7024 0 0 57.6L257.4848 158.31039999999996C256.2048 158.31039999999996 255.1296 158.20799999999997 254.2592 158.0032zM688.9984 568.576c2.5088 2.4576 3.7888 5.632 3.7888 9.0624 0 3.4304-1.28 6.6048-3.6864 9.0624-2.5088 2.4064-5.6832 3.7376-9.1136 3.7376s-6.7072-1.3312-9.1136-3.7376c-2.4064-2.4064-3.6864-5.632-3.6864-9.0624 0-3.4304 1.28-6.6048 3.6864-9.0624C675.7888 563.7632 684.1856 563.7632 688.9984 568.576zM487.936 359.98720000000003m-12.8 0a0.25 0.25 0 1 1 25.6 0 0.25 0.25 0 1 1-25.6 0ZM559.616 313.856c-14.4896-23.2448-39.8336-38.7584-68.4544-38.7584 0 0-43.7248-5.12-76.9024 45.7728l-44.1344-136.96 223.744 0L559.616 313.856zM491.1104 302.2848c25.6 0 55.8592 25.856 55.9616 57.5488 0 0.6144-4.5056 20.1216-4.4032 21.504-3.1232 7.1168-7.5264 13.6704-13.056 19.2512-10.8544 10.9056-26.1632 16.9472-41.5232 16.9984-31.7952 0-57.7024-25.7536-57.8048-57.4976-0.1024-31.744 27.2384-57.7536 59.0336-57.856L491.1104 302.2336zM449.536 359.93600000000004c0 21.248 17.2544 38.5024 38.4 38.5024 21.1968 0 38.4512-17.2544 38.4512-38.5024 0-21.0944-17.2544-38.4-38.4512-38.4C466.7904 321.53599999999994 449.536 338.84159999999997 449.536 359.93600000000004zM611.7888 506.3168L462.7456 655.4112C405.0944 590.4896 393.1136 497.5104 432.128 420.352c5.5296 5.0688 11.7248 9.4208 18.3808 12.8512C433.5104 464.384 425.9328 499.4048 428.544 535.1936000000001 429.056 542.2592 435.2512 547.5328 442.2656 547.0208c7.0656-0.512 12.3392-6.656 11.776-13.7216C451.7376 500.8896 459.0592 469.1968 475.2896 441.344c4.1472 0.6656 8.3456 1.0752 12.6976 1.0752 22.4256-0.0512 43.3152-8.3968 59.0336-24.1152 13.8752-14.0288 23.3984-32.6656 25.3952-52.1728l15.616-59.4432c62.5152-9.7792 125.7984 8.7552 173.0048 50.432L611.7888 506.3168C611.7888 506.3168 611.7888 506.3168 611.7888 506.3168zM474.2656 600.0640000000001C469.504 591.616 465.4592 582.7072000000001 462.336 573.5424 460.544 568.2176 455.5776 564.8896 450.2016 564.8896c-1.3312 0-2.816 0.2048-4.1472 0.7168C439.3984 567.9104 435.7632 575.1808 438.1184 581.8368c3.6352 10.6496 8.3456 20.992 13.8752 30.8224 3.4304 6.144 11.3152 8.3456 17.4592 4.864C475.5968 614.0416 477.7984 606.2080000000001 474.2656 600.0640000000001zM512 879.9744c-273.9712 0-496.0256-222.0544-496.0256-496.0256 0-273.8688 222.0544-495.9744 496.0256-495.9744 273.92 0 496.0256 222.1056 496.0256 495.9744C1008.0256 657.92 785.92 879.9744 512 879.9744zM788.3776 347.8528c-44.9024-44.9536-105.216-69.4272-167.424-69.4272-8.704 0-17.3056 0.6144-26.0096 1.4848l25.2928-96 78.8992 0c14.1824 0 22.4256-8.192 22.4256-22.4256l0-73.6256c0-7.1168-5.6832-12.8-12.8-12.8L241.4592 75.05920000000003c-7.0656 0-12.8 5.6832-12.8 12.8l0 73.6256c0 13.2096 11.8272 22.4256 28.7744 22.4256l85.7088 0 62.208 192.8704c0.512 1.7408 1.4848 3.2768 2.6624 4.608 1.6896 5.9904 3.9936 11.6736 6.8608 17.0496C362.1888 491.008 377.5488 607.0272 453.4272 682.8543999999999c4.9664 5.0176 13.056 5.0176 18.1248 0l149.3504-149.3504 25.4976 25.5488c-3.1232 5.6832-4.8128 12.032-4.8128 18.688 0 10.24 3.9936 19.9168 11.2128 27.1872 7.3216 7.2192 16.896 11.2128 27.1872 11.2128s19.9168-3.9936 27.0848-11.2128c7.3216-7.2704 11.3152-16.9472 11.3152-27.1872 0-10.2912-3.9936-19.9168-11.3152-27.1872-7.2192-7.2192-16.7936-11.2128-27.0848-11.2128-5.0176 0-9.8816 0.9216-14.2848 2.7648L638.976 515.328l149.4016-149.4016C793.3952 360.96000000000004 793.3952 352.8704 788.3776 347.8528zM625.7152 632.0128c14.4896 14.4896 33.792 22.4768 54.3232 22.4768s39.7824-7.9872 54.3232-22.4768c14.4896-14.5408 22.4768-33.792 22.4768-54.3232 0-20.5312-7.9872-39.8336-22.4768-54.3744-2.5088-2.4576-5.7856-3.7376-9.0112-3.7376-3.2768 0-6.6048 1.2288-9.1136 3.7376-5.0176 5.0176-5.0176 13.1072 0 18.1248 9.6768 9.6768 15.0016 22.528 15.0016 36.2496 0 13.6704-5.3248 26.5728-15.0016 36.1984-9.6256 9.6768-22.4768 15.0016-36.1984 15.0016s-26.624-5.3248-36.1984-15.0016c-5.0176-5.0176-13.1072-5.0176-18.1248 0C620.6976 618.9056 620.6976 626.9952000000001 625.7152 632.0128zM761.4976 496.1792c-2.5088-2.4576-5.7856-3.7376-9.0112-3.7376-3.2768 0-6.6048 1.2288-9.1136 3.7376-5.0176 5.0176-5.0176 13.1072 0 18.1248 16.896 16.9472 26.2144 39.424 26.2144 63.3344 0 23.9616-9.3184 46.4896-26.2144 63.3856-35.0208 34.9696-91.904 34.9696-126.8224 0-5.0176-5.0176-13.1072-5.0176-18.1248 0-5.0176 5.0176-5.0176 13.1072 0 18.1248 44.9024 44.9024 118.016 44.9024 163.0208 0 21.7088-21.76 33.6896-50.688 33.6896-81.5104C795.1872 546.8672 783.2064 517.9392 761.4976 496.1792z"  horiz-adv-x="1024" />

    
    <glyph glyph-name="cantsee" unicode="&#58948;" d="M512 678.2208c258.0992 0 410.752-223.0784 453.504-295.5008C922.88 310.65599999999995 770.9696 89.7536 512 89.7536c-291.5072 0-420.9152 220.8-454.8352 291.4304C99.1488 451.0976 255.2832 678.2208 512 678.2208M512 729.4208c-338.3296 0-512-345.3696-512-345.3696s131.072-345.4976 512-345.4976c344.9856 0 512 344.1408 512 344.1408S855.6544 729.4208 512 729.4208L512 729.4208zM512.0256 499.8144c67.0208 0 115.6864-48.6912 115.6864-115.8144 0-67.1744-48.64-115.8656-115.6864-115.8656-67.0464 0-115.7376 48.6912-115.7376 115.8656C396.288 451.1232 444.9792 499.8144 512.0256 499.8144M512.0256 551.0144c-96.896 0-166.9376-73.0624-166.9376-167.0144 0-94.0032 70.016-167.0656 166.9376-167.0656 96.8704 0 166.8864 73.0624 166.8864 167.0656C678.912 477.9776 608.896 551.0144 512.0256 551.0144L512.0256 551.0144z"  horiz-adv-x="1024" />

    
    <glyph glyph-name="cansee" unicode="&#58949;" d="M512.0256 499.84c-67.0464 0-115.7376-48.7168-115.7376-115.8144 0-67.1488 48.6656-115.8656 115.7376-115.8656 67.0464 0 115.6864 48.7168 115.6864 115.8656C627.7376 451.1232 579.072 499.84 512.0256 499.84zM512.0256 729.4464c-338.3296 0-512-345.3696-512-345.3696s131.072-345.4976 512-345.4976C857.0112 38.579200000000014 1024 382.72 1024 382.72S855.6544 729.4464 512.0256 729.4464zM512.0256 216.96000000000004c-96.896 0-166.9376 73.0624-166.9376 167.0656 0 93.952 70.016 167.0144 166.9376 167.0144 96.8704 0 166.8864-73.0624 166.8864-167.0144C678.9376 290.02239999999995 608.896 216.96000000000004 512.0256 216.96000000000004z"  horiz-adv-x="1024" />

    
    <glyph glyph-name="checkobx" unicode="&#58950;" d="M887.466667 896L136.533333 896C61.166933 896 0 834.8672 0 759.466667l0-750.933333c0-75.400533 61.1328-136.533333 136.533333-136.533333l750.933333 0c75.400533 0 136.533333 61.1328 136.533333 136.533333L1024 759.466667C1024 834.8672 962.8672 896 887.466667 896zM879.991467 606.4128000000001L399.4624 53.452800000000025c-5.973333-6.826667-14.677333-10.752-23.790933-10.752-0.341333 0-0.648533 0-0.955733 0-9.489067 0.3072-18.3296 4.8128-24.029867 12.219733l-207.803733 271.121067c-10.410667 13.550933-7.645867 32.802133 6.178133 43.008s33.416533 7.4752 43.793067-6.0416l184.354133-240.5376L832.4096 646.314667c11.195733 12.9024 30.958933 14.506667 44.100267 3.447467C889.6512 638.702933 891.1872 619.349333 879.991467 606.4128000000001z"  horiz-adv-x="1024" />

    
    <glyph glyph-name="close" unicode="&#58952;" d="M512 896C229.239467 896 0 666.7264 0 384c0-282.794667 229.239467-512 512-512s512 229.205333 512 512C1024 666.7264 794.760533 896 512 896zM775.0656 169.198933c13.346133-13.346133 13.346133-34.9184 0-48.264533C768.4096 114.27840000000003 759.671467 110.93333299999995 750.933333 110.93333299999995s-17.476267 3.345067-24.132267 10.001067L512 335.73546699999997l-214.801067-214.801067C290.542933 114.27840000000003 281.8048 110.93333299999995 273.066667 110.93333299999995s-17.476267 3.345067-24.132267 10.001067c-13.346133 13.346133-13.346133 34.9184 0 48.264533L463.735467 384 248.9344 598.801067c-13.346133 13.346133-13.346133 34.9184 0 48.264533s34.9184 13.346133 48.264533 0L512 432.264533l214.766933 214.801067c13.346133 13.346133 34.9184 13.346133 48.264533 0s13.346133-34.9184 0-48.264533L560.264533 384 775.0656 169.198933z"  horiz-adv-x="1024" />

    
    <glyph glyph-name="272alertclose" unicode="&#58953;" d="M584.3968 384L1006.7968 806.4c20.002133 20.002133 20.002133 52.394667 0 72.3968s-52.394667 20.002133-72.3968 0L512 456.3968 89.6 878.7968c-20.002133 20.002133-52.394667 20.002133-72.3968 0s-20.002133-52.394667 0-72.3968L439.6032 384 17.2032-38.39999999999998c-20.002133-20.002133-20.002133-52.394667 0-72.3968 10.001067-10.001067 23.108267-14.984533 36.215467-14.984533s26.2144 4.983467 36.215467 14.984533L512 311.6032l422.4-422.4c10.001067-10.001067 23.1424-14.984533 36.215467-14.984533 13.141333 0 26.2144 4.983467 36.215467 14.984533 20.002133 20.002133 20.002133 52.394667 0 72.3968L584.3968 384z"  horiz-adv-x="1024" />

    
    <glyph glyph-name="272correct" unicode="&#58955;" d="M512 896C229.239467 896 0 666.7264 0 384c0-282.794667 229.239467-512 512-512 282.760533 0 512 229.205333 512 512C1024 666.7264 794.760533 896 512 896zM835.072 573.4741329999999l-416.9728-426.666667c-6.417067-6.519467-15.2576-10.274133-24.405333-10.274133-0.341333 0-0.7168 0-1.058133 0.068267-9.557333 0.273067-18.5344 4.539733-24.7808 11.810133l-180.3264 209.169067c-12.322133 14.301867-10.717867 35.84 3.549867 48.162133 14.267733 12.288 35.805867 10.717867 48.128-3.549867l156.0576-181.0432L786.261333 621.192533c13.2096 13.482667 34.816 13.687467 48.264533 0.546133S848.2816 586.9567999999999 835.072 573.4741329999999z"  horiz-adv-x="1024" />

    
    <glyph glyph-name="272checkbox" unicode="&#58956;" d="M819.19232 896L204.80768 896C91.684108 896 0.0128 804.303092 0.0128 691.20512l0-614.41024c0-113.097973 91.671308-204.79488 204.79488-204.79488l614.38464 0c113.123572 0 204.79488 91.696908 204.79488 204.79488L1023.9872 691.20512C1023.9872 804.303092 932.315892 896 819.19232 896zM908.662083 631.5586109999999l-500.39069-563.18592c-9.727757-10.956526-23.679408-17.20277-38.271043-17.20277-0.537587 0-1.049574 0-1.58716 0.025599-15.18042 0.486388-29.336867 7.654209-38.731832 19.60911L113.315567 346.97052599999995c-17.458764 22.245844-13.542061 54.424239 8.729382 71.883003 22.271443 17.407565 54.424239 13.542061 71.883003-8.729382l178.581135-227.859904L832.119997 699.60171c18.764331 21.119472 51.147521 23.039424 72.266993 4.275093C925.532062 685.061273 927.452014 652.729282 908.662083 631.5586109999999z"  horiz-adv-x="1024" />

    
    <glyph glyph-name="arrowright" unicode="&#58958;" d="M256.819203-127.99998800000003c-14.2336 0-28.398933 5.7344-38.8096 16.964266-19.899733 21.367466-18.670933 54.886399 2.7648 74.820266L673.314132 384.000006 220.774403 804.215468C199.304537 824.149334 198.075737 857.668267 218.009603 879.069867c19.8656 21.4016 53.418666 22.664533 74.820266 2.798933l494.318928-459.025061c10.820267-10.0352 16.964266-24.132266 16.964266-38.843733s-6.144-28.808533-16.964266-38.8096L292.829869-113.86878899999999C282.658136-123.28958799999998 269.721603-127.99998800000003 256.819203-127.99998800000003z"  horiz-adv-x="1024" />

    
    <glyph glyph-name="fengxianicon" unicode="&#58960;" d="M950.698667 771.541333C943.061333 776.618667 761.301333 896 518.613333 896 232.32 896 78.250667 775.594667 71.850667 770.474667c-5.162667-4.181333-8.106667-10.453333-7.978667-17.066667C64.213333 732.16 74.837333 232.362667 147.712 116.30933300000004c73.216-116.608 345.472-237.397333 357.034667-242.474667C507.477333-127.40266699999995 510.378667-128 513.322667-128c2.645333 0 5.290667 0.512 7.808 1.493333 11.648 4.522667 285.354667 112.896 355.925333 244.010667 69.333333 128.725333 82.56 615.082667 83.072 635.690667C960.341333 760.576 956.8 767.445333 950.698667 771.541333zM823.466667 648.021333c-1.322667 0-2.730667 0.341333-3.968 0.341333l-88.448-175.274667c7.68-10.666667 12.416-23.722667 12.416-37.930667 0-36.010667-29.184-65.109333-65.152-65.109333-18.005333 0-34.261333 7.424-46.08 19.157333l-166.656-25.770667c-3.328-32.768-30.72-58.410667-64.426667-58.410667-2.261333 0-4.437333 0.512-6.613333 0.725333L324.010667 178.34666700000002c7.466667-10.581333 11.989333-23.381333 11.989333-37.376 0-35.968-29.141333-65.152-65.109333-65.152-35.925333 0-65.066667 29.226667-65.066667 65.152 0 35.882667 29.141333 64.938667 65.066667 64.938667 3.242667 0 6.272-0.469333 9.386667-0.896l69.418667 125.482667c-8.448 10.965333-13.653333 24.533333-13.653333 39.466667 0 35.968 29.098667 65.109333 65.066667 65.109333 19.541333 0 36.778667-8.789333 48.682667-22.357333l163.712 25.429333c1.621333 34.474667 29.866667 61.994667 64.810667 61.994667 2.944 0 5.802667-0.469333 8.576-0.853333l86.826667 172.16c-9.514667 11.349333-15.36 25.642667-15.36 41.6 0 35.925333 29.226667 65.066667 65.109333 65.066667s64.981333-29.184 64.981333-65.066667S859.392 648.021333 823.466667 648.021333z"  horiz-adv-x="1024" />

    
    <glyph glyph-name="attention" unicode="&#58961;" d="M512 896C229.7088 896 0 666.2912 0 384c0-282.2912 229.7088-512 512-512s512 229.7088 512 512C1024 666.2912 794.2912 896 512 896zM577.1776 162.99519999999995c-22.7072-29.6448-66.0736-80.0512-117.4528-80.3072-36.2752-0.2048-73.8816 22.656-67.968 83.4048 5.9136 60.8 40.0384 145.4592 58.7008 213.248 15.104 54.7584 34.56 100.3776-40.1408 98.8416l0 15.4624c50.1504 19.8656 127.4624 12.6208 179.2512 30.8992l6.144 0c-24.96-126.4896-77.6448-241.5616-89.6-370.816 2.816-2.1504 2.4576-1.6896 6.1696-3.0464 38.9376-13.056 61.2352 77.3376 86.528 71.04S582.9376 170.54719999999998 577.1776 162.99519999999995zM569.6256 589.3376000000001c-34.9184 0-63.232 28.288-63.232 63.232 0 34.944 28.2624 63.2576 63.232 63.2576 34.8928 0 63.232-28.3136 63.232-63.2576C632.8576 617.6256000000001 604.5184 589.3376000000001 569.6256 589.3376000000001z"  horiz-adv-x="1024" />

    
    <glyph glyph-name="correct" unicode="&#58962;" d="M512 896C229.239467 896 0 666.7264 0 384c0-282.794667 229.239467-512 512-512 282.760533 0 512 229.205333 512 512C1024 666.7264 794.760533 896 512 896zM835.072 573.4741329999999l-416.9728-426.666667c-6.417067-6.519467-15.2576-10.274133-24.405333-10.274133-0.341333 0-0.7168 0-1.058133 0.068267-9.557333 0.273067-18.5344 4.539733-24.7808 11.810133l-180.3264 209.169067c-12.322133 14.301867-10.717867 35.84 3.549867 48.162133 14.267733 12.288 35.805867 10.717867 48.128-3.549867l156.0576-181.0432L786.261333 621.192533c13.2096 13.482667 34.816 13.687467 48.264533 0.546133S848.2816 586.9567999999999 835.072 573.4741329999999z"  horiz-adv-x="1024" />

    
    <glyph glyph-name="round" unicode="&#58965;" d="M512 384m-307.2 0a12 12 0 1 1 614.4 0 12 12 0 1 1-614.4 0ZM894.8992 128c-82.7648-123.3664-223.4624-204.8-382.8992-204.8-254.08 0-460.8 206.72-460.8 460.8 0 254.08 206.72 460.8 460.8 460.8s460.8-206.72 460.8-460.8l51.2 0C1024 666.7776 794.8032 896 512 896 229.248 896 0 666.7776 0 384s229.2224-512 512-512c189.3888 0 354.3808 103.0912 442.9312 256L894.8992 128z"  horiz-adv-x="1024" />

    
    <glyph glyph-name="qitoueicon" unicode="&#58966;" d="M511.957333 896C229.632 896 0 666.325333 0 384c0-282.410667 229.674667-512 512-512C794.24-128 1024 101.63199999999995 1024 384 1023.829333 666.325333 794.24 896 511.957333 896zM757.717333 663.765333c-2.645333-2.517333-3.968-4.992-3.968-7.509333l-157.269333-234.922667 92.117333 0c28.245333 0 42.197333-11.306667 42.197333-33.706667-2.645333-17.322667-16.682667-27.434667-42.197333-29.866667l-134.442667 0 0-67.157333 134.442667 0c28.245333 0 42.197333-11.050667 42.197333-33.493333-2.645333-17.493333-16.682667-27.392-42.197333-29.909333l-134.442667 0 0-149.12c0-24.832-14.037333-37.248-42.24-37.248-28.202667 0-42.24 12.416-42.24 37.248l0 149.12L335.274667 227.20000000000005c-25.557333 2.56-39.722667 12.416-42.197333 29.909333 0 22.442667 13.994667 33.493333 42.197333 33.493333l134.442667 0 0 67.157333L335.274667 357.76c-25.557333 2.432-39.722667 12.501333-42.197333 29.866667 0 22.357333 13.994667 33.706667 42.197333 33.706667l92.202667 0-157.44 234.922667c0 2.517333-1.365333 4.992-3.797333 7.509333C260.992 673.621333 257.152 683.562667 254.634667 693.5466670000001c2.517333 19.84 14.037333 31.104 34.56 33.493333 20.48 0 35.797333-8.704 46.08-26.026667l176.682667-257.194667 176.682667 257.28c10.197333 17.237333 25.557333 26.026667 46.08 26.026667 20.437333-2.517333 32-13.653333 34.602667-33.578667C769.28 688.554667 765.312 678.613333 757.717333 663.765333z"  horiz-adv-x="1024" />

    
    <glyph glyph-name="arrowup" unicode="&#58967;" d="M3.072 96.83600000000001c5.53-12.22 17.647-20.036 31.061-20.036h955.733c13.414 0 25.532 7.817 31.061 20.036 5.564 12.186 3.447 26.488-5.359 36.557l-477.867 546.133c-6.519 7.441-15.872 11.674-25.702 11.674s-19.183-4.233-25.702-11.674l-477.867-546.133c-8.806-10.069-10.923-24.371-5.359-36.557z"  horiz-adv-x="1024" />

    
    <glyph glyph-name="502" unicode="&#58970;" d="M427.812571 284.01371400000005c27.099429-2.450286 55.222857-3.913143 84.333714-3.913143 29.001143 0 57.124571 1.353143 84.077714 3.913143-13.238857-61.147429-33.901714-113.444571-54.089143-139.52-7.460571-0.804571-15.067429-1.28-22.674286-1.462857l-11.044571 0c-8.996571 0.256-17.92 0.841143-26.770286 1.938286C461.568 171.19085700000005 441.124571 223.195429 427.812571 284.01371400000005L427.812571 284.01371400000005zM496.347429 686.4822859999999l27.392 0c6.253714-0.292571 12.397714-0.841143 18.505143-1.536 20.150857-26.258286 40.704-78.372571 53.979429-139.410286-26.953143 2.523429-55.076571 3.913143-84.077714 3.913143-29.110857 0-57.197714-1.389714-84.333714-3.913143 13.385143 61.366857 34.048 113.700571 54.272 139.812571C486.875429 685.787429 491.556571 686.189714 496.347429 686.4822859999999L496.347429 686.4822859999999zM605.220571 334.48228600000004c-29.257143-2.925714-60.489143-4.534857-93.074286-4.534857-32.731429 0-64 1.609143-93.330286 4.534857-3.620571 26.404571-5.778286 53.577143-5.778286 80.310857s2.157714 53.796571 5.778286 80.201143c29.330286 2.998857 60.598857 4.571429 93.330286 4.571429 32.585143 0 63.817143-1.536 93.074286-4.571429 3.620571-26.404571 5.778286-53.504 5.778286-80.201143S608.804571 360.88685699999996 605.220571 334.48228600000004L605.220571 334.48228600000004zM358.619429 342.820571c-48.274286 8.740571-87.222857 21.540571-111.030857 36.864L247.588571 449.828571c23.771429 15.323429 62.756571 28.123429 111.030857 36.973714-2.377143-23.259429-3.693714-47.250286-3.693714-71.972571C354.925714 389.997714 356.205714 365.897143 358.619429 342.820571L358.619429 342.820571zM665.490286 486.802286c48.274286-8.850286 87.259429-21.650286 111.030857-36.973714l0-70.107429c-23.771429-15.323429-62.756571-28.123429-111.030857-36.864 2.450286 23.076571 3.803429 47.177143 3.803429 71.972571C669.293714 439.515429 667.977143 463.542857 665.490286 486.802286L665.490286 486.802286zM540.306286 68.86400000000003l0 21.906286c127.963429 10.203429 234.971429 94.281143 278.637714 209.627429-21.174857-9.472-45.129143-18.102857-71.314286-25.417143-30.866286-51.163429-78.226286-91.392-134.656-113.408 19.638857 34.779429 35.254857 79.542857 44.946286 130.56 77.421714 13.458286 139.885714 37.339429 175.067429 66.925714l0 111.469714c-35.181714 29.586286-97.645714 53.357714-175.067429 66.852571-9.472 50.322286-24.795429 94.464-44.105143 129.024 56.649143-23.259429 103.862857-64.987429 133.778286-117.796571 26.587429-8.521143 50.688-18.395429 71.314286-29.330286-40.667429 119.332571-148.589714 207.506286-278.637714 219.428571L540.269714 763.282286c100.790857 4.937143 194.450286 36.790857 274.139429 88.466286l-37.997714 38.875429c-69.339429-42.788571-149.76-69.156571-236.141714-73.910857L540.269714 896l-56.502857 0 0-79.286857c-86.308571 4.864-166.838857 31.268571-236.141714 74.203429L209.700571 852.041143c79.616-51.748571 173.312-83.712 274.102857-88.758857l0-24.100571C355.84 728.758857 248.722286 644.681143 205.092571 529.371429c21.248 9.545143 45.202286 18.176 71.277714 25.417143 31.049143 51.346286 78.482286 91.538286 134.875429 113.554286-19.785143-34.889143-35.401143-79.689143-45.202286-130.962286-77.385143-13.494857-139.739429-37.266286-175.067429-66.852571l0-111.469714c35.328-29.586286 97.682286-53.467429 175.067429-66.925714 9.545143-50.102857 24.722286-94.244571 44.068571-128.731429-56.685714 23.332571-103.643429 65.024-133.668571 117.796571-26.660571 8.448-50.651429 18.322286-71.387429 29.330286 40.740571-119.332571 148.662857-207.579429 278.710857-219.318857l0-22.345143c-139.885714-8.996571-258.230857-84.809143-313.526857-190.793143l68.681143 0c49.590857 75.922286 139.666286 129.133714 244.845714 137.289143L483.766857-128l56.502857 0 0 143.286857c105.179429-8.192 195.328-61.293714 244.809143-137.216l68.608 0C798.464-15.98171400000001 680.155429 59.794286000000056 540.306286 68.86400000000003L540.306286 68.86400000000003z"  horiz-adv-x="1024" />

    
    </font>
</defs>
</svg>
